<?xml version="1.0" encoding="UTF-8" standalone="no"?>
<!DOCTYPE svg PUBLIC "-//W3C//DTD SVG 1.1//EN" "http://www.w3.org/Graphics/SVG/1.1/DTD/svg11.dtd">
<!-- Создано Microsoft Visio, экспорт SVG git-workflow.svg Page-1 -->
<svg xmlns="http://www.w3.org/2000/svg" xmlns:xlink="http://www.w3.org/1999/xlink" xmlns:ev="http://www.w3.org/2001/xml-events"
		xmlns:v="http://schemas.microsoft.com/visio/2003/SVGExtensions/" width="11.6929in" height="8.26772in"
		viewBox="0 0 841.89 595.276" xml:space="preserve" color-interpolation-filters="sRGB" class="st19">
	<v:documentProperties v:langID="1049" v:metric="true" v:viewMarkup="false">
		<v:userDefs>
			<v:ud v:nameU="msvSubprocessMaster" v:prompt="" v:val="VT4(Rectangle)"/>
			<v:ud v:nameU="msvNoAutoConnect" v:val="VT0(1):26"/>
		</v:userDefs>
	</v:documentProperties>

	<style type="text/css">
	<![CDATA[
		.st1 {visibility:visible}
		.st2 {fill:#5b9bd5;fill-opacity:0.22;filter:url(#filter_2);stroke:#5b9bd5;stroke-opacity:0.22}
		.st3 {fill:#41719c;stroke:#c7c8c8;stroke-width:0.25}
		.st4 {fill:#feffff;font-family:Calibri;font-size:1.00001em}
		.st5 {font-size:1em}
		.st6 {fill:none;stroke:none;stroke-width:0.25}
		.st7 {fill:#5b9bd5;font-family:Calibri;font-size:1.33333em}
		.st8 {fill:#00b050;stroke:#c7c8c8;stroke-width:0.25}
		.st9 {fill:#feffff;font-family:Calibri;font-size:0.833336em}
		.st10 {fill:#ffc000;stroke:#c7c8c8;stroke-width:0.25}
		.st11 {fill:#feffff;font-family:Calibri;font-size:1.99999em}
		.st12 {marker-end:url(#mrkr4-68);stroke:#5b9bd5;stroke-linecap:round;stroke-linejoin:round;stroke-width:1}
		.st13 {fill:#5b9bd5;fill-opacity:1;stroke:#5b9bd5;stroke-opacity:1;stroke-width:0.28409090909091}
		.st14 {fill:#ffffff;stroke:none;stroke-linecap:butt;stroke-width:7.2}
		.st15 {fill:#4f87bb;font-family:Calibri;font-size:1.16666em}
		.st16 {fill:#ffffff;stroke:none;stroke-linecap:butt}
		.st17 {fill:#000000;font-family:Calibri;font-size:1.00001em}
		.st18 {stroke:#5b9bd5;stroke-width:0.75}
		.st19 {fill:none;fill-rule:evenodd;font-size:12px;overflow:visible;stroke-linecap:square;stroke-miterlimit:3}
	]]>
	</style>

	<defs id="Markers">
		<g id="lend4">
			<path d="M 2 1 L 0 0 L 2 -1 L 2 1 " style="stroke:none"/>
		</g>
		<marker id="mrkr4-68" class="st13" v:arrowType="4" v:arrowSize="2" v:setback="7.04" refX="-7.04" orient="auto"
				markerUnits="strokeWidth" overflow="visible">
			<use xlink:href="#lend4" transform="scale(-3.52,-3.52) "/>
		</marker>
	</defs>
	<defs id="Filters">
		<filter id="filter_2">
			<feGaussianBlur stdDeviation="2"/>
		</filter>
	</defs>
	<g v:mID="0" v:index="1" v:groupContext="foregroundPage">
		<v:userDefs>
			<v:ud v:nameU="msvThemeOrder" v:val="VT0(0):26"/>
		</v:userDefs>
		<title>Страница-1</title>
		<v:pageProperties v:drawingScale="0.0393701" v:pageScale="0.0393701" v:drawingUnits="24" v:shadowOffsetX="8.50394"
				v:shadowOffsetY="-8.50394"/>
		<v:layer v:name="Соединительная линия" v:index="0"/>
		<v:layer v:name="Выноска" v:index="1"/>
		<g id="shape1-1" v:mID="1" v:groupContext="shape" transform="translate(302.362,-342.52)">
			<title>Квадрат</title>
			<desc>Локальный репозиторий с данными</desc>
			<v:userDefs>
				<v:ud v:nameU="visVersion" v:val="VT0(15):26"/>
			</v:userDefs>
			<v:textBlock v:margins="rect(4,4,4,4)" v:tabSpace="42.5197"/>
			<v:textRect cx="40.1575" cy="555.118" width="80.32" height="80.315"/>
			<g id="shadow1-2" v:groupContext="shadow" v:shadowOffsetX="0.345598" v:shadowOffsetY="-1.97279" v:shadowType="1"
					transform="matrix(1,0,0,1,0.345598,1.97279)" class="st1">
				<rect x="0" y="514.961" width="80.315" height="80.315" class="st2"/>
			</g>
			<rect x="0" y="514.961" width="80.315" height="80.315" class="st3"/>
			<text x="11.34" y="544.32" class="st4" v:langID="1049"><v:paragraph v:horizAlign="1"/><v:tabList/>Локальный <tspan
						x="6.83" dy="1.2em" class="st5">репозиторий </tspan><tspan x="12.33" dy="1.2em" class="st5">с данными</tspan></text>		</g>
		<g id="shape3-9" v:mID="3" v:groupContext="shape" transform="translate(136.598,-542.756)">
			<title>Лист.3</title>
			<desc>Локальный компьютер</desc>
			<v:textBlock v:margins="rect(4,4,4,4)" v:tabSpace="42.5197"/>
			<v:textRect cx="76" cy="585.276" width="152" height="20"/>
			<rect x="0" y="575.276" width="152" height="20" class="st6"/>
			<text x="37.58" y="580.48" class="st7" v:langID="1049"><v:paragraph v:horizAlign="1"/><v:tabList/>Локальный <tspan
						x="37.68" dy="1.2em" class="st5">компьютер</tspan></text>		</g>
		<g id="shape5-13" v:mID="5" v:groupContext="shape" transform="translate(304.724,-44.8453)">
			<title>Прямоугольник</title>
			<desc>Локальный репозиторий с кодом</desc>
			<v:userDefs>
				<v:ud v:nameU="visVersion" v:val="VT0(15):26"/>
			</v:userDefs>
			<v:textBlock v:margins="rect(4,4,4,4)" v:tabSpace="42.5197"/>
			<v:textRect cx="40.1575" cy="517.323" width="80.32" height="155.906"/>
			<g id="shadow5-14" v:groupContext="shadow" v:shadowOffsetX="0.345598" v:shadowOffsetY="-1.97279" v:shadowType="1"
					transform="matrix(1,0,0,1,0.345598,1.97279)" class="st1">
				<rect x="0" y="439.37" width="80.315" height="155.906" class="st2"/>
			</g>
			<rect x="0" y="439.37" width="80.315" height="155.906" class="st8"/>
			<text x="11.34" y="506.52" class="st4" v:langID="1049"><v:paragraph v:horizAlign="1"/><v:tabList/>Локальный <tspan
						x="6.83" dy="1.2em" class="st5">репозиторий </tspan><tspan x="19.75" dy="1.2em" class="st5">с кодом</tspan></text>		</g>
		<g id="shape8-21" v:mID="8" v:groupContext="shape" transform="translate(311.634,-44.8915)">
			<title>Эллипс</title>
			<desc>Подмодуль с данными</desc>
			<v:userDefs>
				<v:ud v:nameU="visVersion" v:val="VT0(15):26"/>
			</v:userDefs>
			<v:textBlock v:margins="rect(4,4,4,4)" v:tabSpace="42.5197"/>
			<v:textRect cx="33.248" cy="573.11" width="58.19" height="38.7894"/>
			<g id="shadow8-22" v:groupContext="shadow" v:shadowOffsetX="0.345598" v:shadowOffsetY="-1.97279" v:shadowType="1"
					transform="matrix(1,0,0,1,0.345598,1.97279)" class="st1">
				<path d="M0 573.11 A33.248 22.1654 0 1 1 66.5 573.11 A33.248 22.1654 0 0 1 0 573.11 Z" class="st2"/>
			</g>
			<path d="M0 573.11 A33.248 22.1654 0 1 1 66.5 573.11 A33.248 22.1654 0 0 1 0 573.11 Z" class="st3"/>
			<text x="8.74" y="570.11" class="st9" v:langID="1049"><v:paragraph v:horizAlign="1"/><v:tabList/>Подмодуль <tspan
						x="10.06" dy="1.2em" class="st5">с данными</tspan></text>		</g>
		<g id="shape14-28" v:mID="14" v:groupContext="shape" transform="translate(557.48,-342.702)">
			<title>Квадрат.14</title>
			<desc>Защищенныйрепозиторий с данными</desc>
			<v:userDefs>
				<v:ud v:nameU="visVersion" v:val="VT0(15):26"/>
			</v:userDefs>
			<v:textBlock v:margins="rect(4,4,4,4)" v:tabSpace="42.5197"/>
			<v:textRect cx="40.1575" cy="555.118" width="80.32" height="80.315"/>
			<g id="shadow14-29" v:groupContext="shadow" v:shadowOffsetX="0.345598" v:shadowOffsetY="-1.97279" v:shadowType="1"
					transform="matrix(1,0,0,1,0.345598,1.97279)" class="st1">
				<rect x="0" y="514.961" width="80.315" height="80.315" class="st2"/>
			</g>
			<rect x="0" y="514.961" width="80.315" height="80.315" class="st3"/>
			<text x="5.57" y="544.32" class="st4" v:langID="1049"><v:paragraph v:horizAlign="1"/><v:tabList/>Защищенный<tspan
						x="6.83" dy="1.2em" class="st5">репозиторий </tspan><tspan x="12.33" dy="1.2em" class="st5">с данными</tspan></text>		</g>
		<g id="shape15-36" v:mID="15" v:groupContext="shape" transform="translate(526.976,-522.598)">
			<title>Лист.15</title>
			<desc>Удаленный репозиторий на GitHub</desc>
			<v:textBlock v:margins="rect(4,4,4,4)" v:tabSpace="42.5197"/>
			<v:textRect cx="68.9134" cy="573.11" width="137.83" height="44.3307"/>
			<rect x="0" y="550.945" width="137.827" height="44.3307" class="st6"/>
			<text x="30.13" y="558.71" class="st7" v:langID="1049"><v:paragraph v:horizAlign="1"/><v:tabList/>Удаленный <tspan
						x="14.55" dy="1.2em" class="st5">репозиторий на </tspan><tspan x="45.96" dy="1.2em" class="st5"
						v:langID="1033">GitHub</tspan></text>		</g>
		<g id="shape16-41" v:mID="16" v:groupContext="shape" transform="translate(555.359,-34.3571)">
			<title>Прямоугольник.16</title>
			<desc>Публичный репозиторий с кодом</desc>
			<v:userDefs>
				<v:ud v:nameU="visVersion" v:val="VT0(15):26"/>
			</v:userDefs>
			<v:textBlock v:margins="rect(4,4,4,4)" v:tabSpace="42.5197"/>
			<v:textRect cx="43.7694" cy="506.155" width="87.54" height="178.241"/>
			<g id="shadow16-42" v:groupContext="shadow" v:shadowOffsetX="0.345598" v:shadowOffsetY="-1.97279" v:shadowType="1"
					transform="matrix(1,0,0,1,0.345598,1.97279)" class="st1">
				<rect x="0" y="417.034" width="87.5388" height="178.241" class="st2"/>
			</g>
			<rect x="0" y="417.034" width="87.5388" height="178.241" class="st8"/>
			<text x="14.56" y="495.36" class="st4" v:langID="1049"><v:paragraph v:horizAlign="1"/><v:tabList/>Публичный <tspan
						x="6.54" dy="1.2em" class="st5">репозиторий с </tspan><tspan x="27.25" dy="1.2em" class="st5">кодом</tspan></text>		</g>
		<g id="shape17-49" v:mID="17" v:groupContext="shape" transform="translate(555.359,-34.3571)">
			<title>Эллипс.17</title>
			<desc>Подмодуль с защищенными данными</desc>
			<v:userDefs>
				<v:ud v:nameU="visVersion" v:val="VT0(15):26"/>
			</v:userDefs>
			<v:textBlock v:margins="rect(4,4,4,4)" v:tabSpace="42.5197"/>
			<v:textRect cx="43.7694" cy="562.576" width="76.6" height="57.2244"/>
			<g id="shadow17-50" v:groupContext="shadow" v:shadowOffsetX="0.345598" v:shadowOffsetY="-1.97279" v:shadowType="1"
					transform="matrix(1,0,0,1,0.345598,1.97279)" class="st1">
				<path d="M0 562.58 A43.7694 32.6997 0 1 1 87.54 562.58 A43.7694 32.6997 0 1 1 -0 562.58 Z" class="st2"/>
			</g>
			<path d="M0 562.58 A43.7694 32.6997 0 1 1 87.54 562.58 A43.7694 32.6997 0 1 1 -0 562.58 Z" class="st3"/>
			<text x="16.02" y="553.58" class="st9" v:langID="1049"><v:paragraph v:horizAlign="1"/><v:tabList/>Подмодуль с <tspan
						x="11.82" dy="1.2em" class="st5">защищенными </tspan><tspan x="23.82" dy="1.2em" class="st5">данными</tspan></text>		</g>
		<g id="shape18-57" v:mID="18" v:groupContext="shape" transform="translate(701.069,-71.5748)">
			<title>Круг</title>
			<desc>Netlify</desc>
			<v:userDefs>
				<v:ud v:nameU="visVersion" v:val="VT0(15):26"/>
			</v:userDefs>
			<v:textBlock v:margins="rect(4,4,4,4)" v:tabSpace="42.5197"/>
			<v:textRect cx="56.6929" cy="538.583" width="99.22" height="85.0394"/>
			<g id="shadow18-58" v:groupContext="shadow" v:shadowOffsetX="0.345598" v:shadowOffsetY="-1.97279" v:shadowType="1"
					transform="matrix(1,0,0,1,0.345598,1.97279)" class="st1">
				<path d="M0 538.58 A56.6929 56.6929 0 0 1 113.39 538.58 A56.6929 56.6929 0 1 1 0 538.58 Z" class="st2"/>
			</g>
			<path d="M0 538.58 A56.6929 56.6929 0 0 1 113.39 538.58 A56.6929 56.6929 0 1 1 0 538.58 Z" class="st10"/>
			<text x="24.36" y="545.78" class="st11" v:langID="1033"><v:paragraph v:horizAlign="1"/><v:tabList/>Netlify</text>		</g>
		<g id="shape20-63" v:mID="20" v:groupContext="shape" v:layerMember="0" transform="translate(597.638,-430.013)">
			<title>Динамическая соединительная линия</title>
			<desc>git pull</desc>
			<v:textBlock v:margins="rect(4,4,4,4)" v:tabSpace="42.5197"/>
			<v:textRect cx="-127.65" cy="543.398" width="70" height="24.8035"/>
			<path d="M0 602.27 L0 543.4 L-255.12 543.4 L-255.12 595.41" class="st12"/>
			<rect v:rectContext="textBkgnd" x="-148.63" y="534.999" width="41.9587" height="16.8" class="st14"/>
			<text x="-145.46" y="547.6" class="st15" v:langID="1033"><v:paragraph v:horizAlign="1"/><v:tabList/>git pull</text>		</g>
		<g id="shape22-71" v:mID="22" v:groupContext="shape" v:layerMember="0" transform="translate(382.677,-375.682)">
			<title>Динамическая соединительная линия.22</title>
			<desc>git push</desc>
			<v:textBlock v:margins="rect(4,4,4,4)" v:tabSpace="42.5197"/>
			<v:textRect cx="87.3102" cy="588.098" width="70" height="24.8035"/>
			<path d="M0 588.28 L79.37 588.28 L79.37 588.1 L167.76 588.1" class="st12"/>
			<rect v:rectContext="textBkgnd" x="64.7107" y="579.698" width="45.1989" height="16.8" class="st14"/>
			<text x="64.71" y="592.3" class="st15" v:langID="1033"><v:paragraph v:horizAlign="1"/><v:tabList/>git push</text>		</g>
		<g id="shape23-78" v:mID="23" v:groupContext="shape" v:layerMember="0" transform="translate(597.638,-342.702)">
			<title>Динамическая соединительная линия.23</title>
			<desc>git submodule update --remote</desc>
			<v:textBlock v:margins="rect(4,4,4,4)" v:tabSpace="42.5197"/>
			<v:textRect cx="-114.991" cy="677.638" width="189.87" height="24.8035"/>
			<path d="M0 595.28 L0 677.64 L-252.76 677.64 L-252.76 730.19" class="st12"/>
			<rect v:rectContext="textBkgnd" x="-204.34" y="669.239" width="178.697" height="16.8" class="st14"/>
			<text x="-204.34" y="681.84" class="st15" v:langID="1033"><v:paragraph v:horizAlign="1"/><v:tabList/>git submodule update --remote</text>		</g>
		<g id="shape24-85" v:mID="24" v:groupContext="shape" v:layerMember="0" transform="translate(385.039,-116.051)">
			<title>Динамическая соединительная линия.24</title>
			<desc>git push</desc>
			<v:textBlock v:margins="rect(4,4,4,4)" v:tabSpace="42.5197"/>
			<v:textRect cx="84.8199" cy="587.849" width="70" height="24.8035"/>
			<path d="M0 588.53 L10.63 588.53 L10.63 587.85 L163.28 587.85" class="st12"/>
			<rect v:rectContext="textBkgnd" x="62.2204" y="579.449" width="45.1989" height="16.8" class="st14"/>
			<text x="62.22" y="592.05" class="st15" v:langID="1033"><v:paragraph v:horizAlign="1"/><v:tabList/>git push</text>		</g>
		<g id="shape25-92" v:mID="25" v:groupContext="shape" v:layerMember="0" transform="translate(642.898,-116.513)">
			<title>Динамическая соединительная линия.25</title>
			<path d="M0 588.31 L51.13 588.1" class="st12"/>
		</g>
		<g id="shape26-97" v:mID="26" v:groupContext="shape" transform="translate(686.063,-537.361)">
			<title>Лист.26</title>
			<desc>Провайдер Netlify</desc>
			<v:textBlock v:margins="rect(4,4,4,4)" v:tabSpace="42.5197"/>
			<v:textRect cx="68.9134" cy="580.492" width="137.83" height="29.5681"/>
			<rect x="0" y="565.708" width="137.827" height="29.5681" class="st6"/>
			<text x="30.88" y="575.69" class="st7" v:langID="1049"><v:paragraph v:horizAlign="1"/><v:tabList/>Провайдер<v:lf/><tspan
						x="47.35" dy="1.2em" class="st5" v:langID="1033">Netlify</tspan></text>		</g>
		<g id="shape31-101" v:mID="31" v:groupContext="shape" transform="translate(30.0337,-340.157)">
			<title>Трапеция</title>
			<desc>Файлы с данными</desc>
			<v:userDefs>
				<v:ud v:nameU="visVersion" v:prompt="" v:val="VT0(15):26"/>
			</v:userDefs>
			<v:textBlock v:margins="rect(4,4,4,4)" v:tabSpace="42.5197"/>
			<v:textRect cx="56.6929" cy="552.756" width="113.39" height="85.0394"/>
			<g id="shadow31-102" v:groupContext="shadow" v:shadowOffsetX="0.345598" v:shadowOffsetY="-1.97279" v:shadowType="1"
					transform="matrix(1,0,0,1,0.345598,1.97279)" class="st1">
				<path d="M0 595.28 L113.39 595.28 L102.05 510.24 L11.34 510.24 L0 595.28 Z" class="st2"/>
			</g>
			<path d="M0 595.28 L113.39 595.28 L102.05 510.24 L11.34 510.24 L0 595.28 Z" class="st3"/>
			<text x="10.15" y="556.36" class="st4" v:langID="1049"><v:paragraph v:horizAlign="1"/><v:tabList/>Файлы с данными</text>		</g>
		<g id="shape32-107" v:mID="32" v:groupContext="shape" transform="translate(32.396,-66.1052)">
			<title>Трапеция.32</title>
			<desc>Файлы с кодом</desc>
			<v:userDefs>
				<v:ud v:nameU="visVersion" v:prompt="" v:val="VT0(15):26"/>
			</v:userDefs>
			<v:textBlock v:margins="rect(4,4,4,4)" v:tabSpace="42.5197"/>
			<v:textRect cx="56.6929" cy="538.583" width="113.39" height="113.386"/>
			<g id="shadow32-108" v:groupContext="shadow" v:shadowOffsetX="0.345598" v:shadowOffsetY="-1.97279" v:shadowType="1"
					transform="matrix(1,0,0,1,0.345598,1.97279)" class="st1">
				<path d="M0 595.28 L113.39 595.28 L102.05 481.89 L11.34 481.89 L0 595.28 Z" class="st2"/>
			</g>
			<path d="M0 595.28 L113.39 595.28 L102.05 481.89 L11.34 481.89 L0 595.28 Z" class="st8"/>
			<text x="17.57" y="542.18" class="st4" v:langID="1049"><v:paragraph v:horizAlign="1"/><v:tabList/>Файлы с кодом</text>		</g>
		<g id="shape33-113" v:mID="33" v:groupContext="shape" v:layerMember="0" transform="translate(342.52,-416.929)">
			<title>Динамическая соединительная линия.33</title>
			<path d="M0 589.37 L0 543.74 L-250.12 543.74 L-250.12 579.97" class="st12"/>
		</g>
		<g id="shape34-118" v:mID="34" v:groupContext="shape" v:layerMember="0" transform="translate(137.75,-375.591)">
			<title>Динамическая соединительная линия.34</title>
			<desc>git add . git commit –m ‘1’</desc>
			<v:textBlock v:margins="rect(4,4,4,4)" v:tabSpace="42.5197"/>
			<v:textRect cx="82.306" cy="588.189" width="110.97" height="41.6033"/>
			<path d="M0 588.19 L157.57 588.19" class="st12"/>
			<rect v:rectContext="textBkgnd" x="30.8233" y="571.389" width="99.7971" height="33.5998" class="st16"/>
			<text x="30.82" y="583.99" class="st15" v:langID="1033"><v:paragraph/><v:tabList/>git add .<v:newlineChar/><tspan
						x="30.82" dy="1.2em" class="st5">git commit </tspan>–m ‘1’</text>		</g>
		<g id="shape35-126" v:mID="35" v:groupContext="shape" v:layerMember="0" transform="translate(140.112,-115.711)">
			<title>Динамическая соединительная линия.35</title>
			<desc>git add . git commit –m ‘2’</desc>
			<v:textBlock v:margins="rect(4,4,4,4)" v:tabSpace="42.5197"/>
			<v:textRect cx="82.306" cy="588.189" width="110.97" height="41.6033"/>
			<path d="M0 588.19 L157.57 588.19" class="st12"/>
			<rect v:rectContext="textBkgnd" x="30.8233" y="571.389" width="99.7971" height="33.5998" class="st14"/>
			<text x="30.82" y="583.99" class="st15" v:langID="1033"><v:paragraph/><v:tabList/>git add .<v:newlineChar/><tspan
						x="30.82" dy="1.2em" class="st5">git commit </tspan>–m ‘2’</text>		</g>
		<g id="shape36-134" v:mID="36" v:groupContext="shape" v:layerMember="0" transform="translate(344.882,-200.751)">
			<title>Динамическая соединительная линия.36</title>
			<path d="M0 595.28 L0 551.35 L-250.12 551.35 L-250.12 609.5" class="st12"/>
		</g>
		<g id="shape40-139" v:mID="40" v:groupContext="shape" transform="translate(391.717,-510.236)">
			<title>Лист.40</title>
			<desc>Шаг 1 Получение свежих данных из удаленного репозитория</desc>
			<v:textBlock v:margins="rect(4,4,4,4)" v:tabSpace="42.5197"/>
			<v:textRect cx="76" cy="585.276" width="152" height="20"/>
			<rect x="0" y="575.276" width="152" height="20" class="st6"/>
			<text x="61.45" y="574.48" class="st17" v:langID="1049"><v:paragraph v:horizAlign="1"/><v:tabList/>Шаг 1<v:lf/><tspan
						x="7.78" dy="1.2em" class="st5">Получение свежих данных </tspan><tspan x="4.77" dy="1.2em" class="st5">из удаленного репозитория</tspan></text>		</g>
		<g id="shape42-144" v:mID="42" v:groupContext="shape" transform="translate(146.891,-419.37)">
			<title>Лист.42</title>
			<desc>Шаг 2 Сохранение в локальный репозиторий после редактирования</desc>
			<v:textBlock v:margins="rect(4,4,4,4)" v:tabSpace="42.5197"/>
			<v:textRect cx="76" cy="585.276" width="152" height="20"/>
			<rect x="0" y="575.276" width="152" height="20" class="st6"/>
			<text x="61.45" y="567.28" class="st17" v:langID="1049"><v:paragraph v:horizAlign="1"/><v:tabList/>Шаг 2<v:lf/><tspan
						x="11.58" dy="1.2em" class="st5">Сохранение в локальный </tspan><tspan x="26.44" dy="1.2em" class="st5">репозиторий после </tspan><tspan
						x="33.93" dy="1.2em" class="st5">редактирования</tspan></text>		</g>
		<g id="shape43-150" v:mID="43" v:groupContext="shape" transform="translate(399.816,-402.835)">
			<title>Лист.43</title>
			<desc>Шаг 3 Обновление защищенного репозитория с данными</desc>
			<v:textBlock v:margins="rect(4,4,4,4)" v:tabSpace="42.5197"/>
			<v:textRect cx="76" cy="585.276" width="152" height="20"/>
			<rect x="0" y="575.276" width="152" height="20" class="st6"/>
			<text x="61.45" y="574.48" class="st17" v:langID="1049"><v:paragraph v:horizAlign="1"/><v:tabList/>Шаг 3<v:lf/><tspan
						x="7.3" dy="1.2em" class="st5">Обновление защищенного </tspan><tspan x="13.88" dy="1.2em" class="st5">репозитория с данными</tspan></text>		</g>
		<g id="shape69-155" v:mID="69" v:groupContext="shape" transform="translate(405.89,-303.605)">
			<title>Лист.69</title>
			<desc>Шаг 4 Синхронизация данных в локальном репозитории с защищенным</desc>
			<v:textBlock v:margins="rect(4,4,4,4)" v:tabSpace="42.5197"/>
			<v:textRect cx="76" cy="595.164" width="152" height="0.223788"/>
			<rect x="0" y="595.052" width="152" height="0.223788" class="st6"/>
			<text x="61.45" y="577.16" class="st17" v:langID="1049"><v:paragraph v:horizAlign="1"/><v:tabList/>Шаг 4<v:lf/><tspan
						x="11.41" dy="1.2em" class="st5">Синхронизация данных в </tspan><tspan x="9.23" dy="1.2em" class="st5">локальном репозитории с </tspan><tspan
						x="40.9" dy="1.2em" class="st5">защищенным</tspan></text>		</g>
		<g id="shape70-161" v:mID="70" v:groupContext="shape" transform="translate(149.253,-150.079)">
			<title>Лист.70</title>
			<desc>Шаг 5 Обновление данных в локальном репозитории</desc>
			<v:textBlock v:margins="rect(4,4,4,4)" v:tabSpace="42.5197"/>
			<v:textRect cx="76" cy="585.276" width="152" height="20"/>
			<rect x="0" y="575.276" width="152" height="20" class="st6"/>
			<text x="61.45" y="567.28" class="st17" v:langID="1049"><v:paragraph v:horizAlign="1"/><v:tabList/>Шаг 5 <v:newlineChar/><tspan
						x="19.28" dy="1.2em" class="st5">Обновление данных в </tspan><tspan x="13.12" dy="1.2em" class="st5">локальном репозитории </tspan> <v:newlineChar/></text>		</g>
		<g id="shape71-166" v:mID="71" v:groupContext="shape" transform="translate(42.5197,-66.1052)">
			<title>Эллипс.71</title>
			<desc>Копия данных (только для чтения)</desc>
			<v:userDefs>
				<v:ud v:nameU="visVersion" v:val="VT0(15):26"/>
			</v:userDefs>
			<v:textBlock v:margins="rect(4,4,4,4)" v:tabSpace="42.5197"/>
			<v:textRect cx="47.4213" cy="573.11" width="82.99" height="38.7894"/>
			<g id="shadow71-167" v:groupContext="shadow" v:shadowOffsetX="0.345598" v:shadowOffsetY="-1.97279" v:shadowType="1"
					transform="matrix(1,0,0,1,0.345598,1.97279)" class="st1">
				<path d="M0 573.11 A47.4213 22.1654 0 1 1 94.84 573.11 A47.4213 22.1654 0 0 1 0 573.11 Z" class="st2"/>
			</g>
			<path d="M0 573.11 A47.4213 22.1654 0 1 1 94.84 573.11 A47.4213 22.1654 0 0 1 0 573.11 Z" class="st3"/>
			<text x="17.24" y="564.11" class="st9" v:langID="1049"><v:paragraph v:horizAlign="1"/><v:tabList/>Копия данных <tspan
						x="22.63" dy="1.2em" class="st5">(</tspan>только для <tspan x="31.39" dy="1.2em" class="st5">чтения</tspan>)</text>		</g>
		<g id="shape72-174" v:mID="72" v:groupContext="shape" transform="translate(396.031,-145.318)">
			<title>Лист.72</title>
			<desc>Шаг 6 Обновление публичного репозитория с кодом</desc>
			<v:textBlock v:margins="rect(4,4,4,4)" v:tabSpace="42.5197"/>
			<v:textRect cx="76" cy="585.276" width="152" height="20"/>
			<rect x="0" y="575.276" width="152" height="20" class="st6"/>
			<text x="61.45" y="574.48" class="st17" v:langID="1049"><v:paragraph v:horizAlign="1"/><v:tabList/>Шаг 6<v:newlineChar/><tspan
						x="12.98" dy="1.2em" class="st5">Обновление публичного </tspan><tspan x="21.3" dy="1.2em" class="st5">репозитория с кодом</tspan></text>		</g>
		<g id="shape73-179" v:mID="73" v:groupContext="shape" transform="translate(701.069,-67.0276)">
			<title>Круг.73</title>
			<desc>Netlify</desc>
			<v:userDefs>
				<v:ud v:nameU="visVersion" v:val="VT0(15):26"/>
			</v:userDefs>
			<v:textBlock v:margins="rect(4,4,4,4)" v:tabSpace="42.5197"/>
			<v:textRect cx="56.6929" cy="538.583" width="99.22" height="85.0394"/>
			<g id="shadow73-180" v:groupContext="shadow" v:shadowOffsetX="0.345598" v:shadowOffsetY="-1.97279" v:shadowType="1"
					transform="matrix(1,0,0,1,0.345598,1.97279)" class="st1">
				<path d="M0 538.58 A56.6929 56.6929 0 0 1 113.39 538.58 A56.6929 56.6929 0 1 1 0 538.58 Z" class="st2"/>
			</g>
			<path d="M0 538.58 A56.6929 56.6929 0 0 1 113.39 538.58 A56.6929 56.6929 0 1 1 0 538.58 Z" class="st10"/>
			<text x="24.36" y="545.78" class="st11" v:langID="1033"><v:paragraph v:horizAlign="1"/><v:tabList/>Netlify</text>		</g>
		<g id="shape74-185" v:mID="74" v:groupContext="shape" v:layerMember="0" transform="translate(35.703,-382.677)">
			<title>Динамическая соединительная линия.74</title>
			<desc>Редактирование</desc>
			<v:textBlock v:margins="rect(4,4,4,4)" v:tabSpace="42.5197"/>
			<v:textRect cx="38.7064" cy="689.933" width="109.54" height="24.8035"/>
			<path d="M0 595.28 L-16.3 595.28 L-16.3 689.93 L98.94 689.93 L98.94 658.55 L45.35 658.55 L45.35 644.84" class="st12"/>
			<rect v:rectContext="textBkgnd" x="-10.4779" y="681.533" width="98.3688" height="16.8" class="st14"/>
			<text x="-10.48" y="694.13" class="st15" v:langID="1049"><v:paragraph v:horizAlign="1"/><v:tabList/>Редактирование</text>		</g>
		<g id="shape39-192" v:mID="39" v:groupContext="shape" v:layerMember="1" transform="translate(685.537,-226.772)">
			<title>Ортогональная</title>
			<desc>Netlify сам отслеживает все изменения в публичном репозитории...</desc>
			<v:userDefs>
				<v:ud v:nameU="BackFillColor" v:prompt="" v:val="VT5(#96afcf)"/>
				<v:ud v:nameU="BackLineColor" v:prompt="" v:val="VT5(#1f477d)"/>
				<v:ud v:nameU="BackCharColor" v:prompt="" v:val="VT5(#000000)"/>
				<v:ud v:nameU="DarkerColor" v:prompt="" v:val="VT5(#000000)"/>
				<v:ud v:nameU="visVersion" v:prompt="" v:val="VT0(15):26"/>
				<v:ud v:nameU="msvStructureType" v:prompt="" v:val="VT4(Callout)"/>
				<v:ud v:nameU="msvSDTargetIntersection" v:prompt=""/>
				<v:ud v:nameU="msvSDCalloutNoHighlight" v:prompt="" v:val="VT0(0):5"/>
				<v:ud v:nameU="msvShapeCategories" v:prompt="" v:val="VT0(0):26"/>
				<v:ud v:nameU="Side" v:prompt="" v:val="VT0(4):26"/>
				<v:ud v:nameU="LeaderEnd" v:prompt="" v:val="VT7(PNT(6.25MM,-6.4MM)):40"/>
				<v:ud v:nameU="WHBoxIntersection" v:prompt="" v:val="VT7(PNT(10.096153846154MM,0MM)):40"/>
				<v:ud v:nameU="IsEndInterior" v:prompt="" v:val="VT0(0):5"/>
				<v:ud v:nameU="Extension" v:prompt="" v:val="VT0(0.059055118110236):24"/>
				<v:ud v:nameU="Inset" v:prompt="" v:val="VT0(0.059055118110236):24"/>
				<v:ud v:nameU="Embellishment" v:prompt="" v:val="VT0(2):26"/>
				<v:ud v:nameU="MultiFormat" v:prompt="" v:val="VT0(0):26"/>
				<v:ud v:nameU="BackFillColor" v:prompt="" v:val="VT5(#ffffff)"/>
				<v:ud v:nameU="BackLineColor" v:prompt="" v:val="VT5(#eaeff7)"/>
				<v:ud v:nameU="BackCharColor" v:prompt="" v:val="VT5(#5b9bd5)"/>
				<v:ud v:nameU="DarkerColor" v:prompt="" v:val="VT5(#5b9bd5)"/>
				<v:ud v:nameU="LeaderEnd" v:prompt="" v:val="VT7(PNT(-0.23622047244095,-1.4615031673672)):40"/>
				<v:ud v:nameU="WHBoxIntersection" v:prompt="" v:val="VT7(PNT(0,0)):40"/>
			</v:userDefs>
			<v:textBlock v:margins="rect(4,4,4,4)" v:tabSpace="42.5197"/>
			<v:textRect cx="56.6929" cy="533.622" width="113.39" height="123.204"/>
			<path d="M0 595.28 L-17.01 700.5" class="st18"/>
			<path d="M0 591.02 L0 595.28 L113.39 595.28 L113.39 591.02" class="st18"/>
			<text x="29.7" y="486.82" class="st17" v:langID="1033"><v:paragraph v:horizAlign="1"/><v:tabList/>Netlify <tspan
						class="st5" v:langID="1049">сам </tspan><tspan x="14.43" dy="1.2em" class="st5" v:langID="1049">отслеживает все </tspan><tspan
						x="24.15" dy="1.2em" class="st5" v:langID="1049">изменения в </tspan><tspan x="28.11" dy="1.2em"
						class="st5" v:langID="1049">публичном </tspan><tspan x="18.76" dy="1.2em" class="st5" v:langID="1049">репозитории и </tspan><tspan
						x="18.6" dy="1.2em" class="st5" v:langID="1049">автоматически </tspan><tspan x="17.54" dy="1.2em"
						class="st5" v:langID="1049">обновляет сайт</tspan><v:newlineChar/></text>		</g>
	</g>
</svg>
