<?xml version="1.0" encoding="UTF-8" standalone="no"?>
<!DOCTYPE svg PUBLIC "-//W3C//DTD SVG 1.1//EN" "http://www.w3.org/Graphics/SVG/1.1/DTD/svg11.dtd">
<!-- Создано Microsoft Visio, экспорт SVG git-workflow-actions-v2.svg Page-1 -->
<svg xmlns="http://www.w3.org/2000/svg" xmlns:xlink="http://www.w3.org/1999/xlink" xmlns:ev="http://www.w3.org/2001/xml-events"
		xmlns:v="http://schemas.microsoft.com/visio/2003/SVGExtensions/" width="11.6929in" height="8.26772in"
		viewBox="0 0 841.89 595.276" xml:space="preserve" color-interpolation-filters="sRGB" class="st23">
	<v:documentProperties v:langID="1049" v:metric="true" v:viewMarkup="false">
		<v:userDefs>
			<v:ud v:nameU="msvSubprocessMaster" v:prompt="" v:val="VT4(Rectangle)"/>
			<v:ud v:nameU="msvNoAutoConnect" v:val="VT0(1):26"/>
		</v:userDefs>
	</v:documentProperties>

	<style type="text/css">
	<![CDATA[
		.st1 {visibility:visible}
		.st2 {fill:#5b9bd5;fill-opacity:0.22;filter:url(#filter_2);stroke:#5b9bd5;stroke-opacity:0.22}
		.st3 {fill:#41719c;stroke:#c7c8c8;stroke-width:0.25}
		.st4 {fill:#feffff;font-family:Calibri;font-size:1.00001em}
		.st5 {font-size:1em}
		.st6 {fill:none;stroke:none;stroke-width:0.25}
		.st7 {fill:#5b9bd5;font-family:Calibri;font-size:1.33333em}
		.st8 {fill:#00b050;stroke:#c7c8c8;stroke-width:0.25}
		.st9 {fill:#feffff;font-family:Calibri;font-size:0.833336em}
		.st10 {marker-end:url(#mrkr4-48);stroke:#5b9bd5;stroke-linecap:round;stroke-linejoin:round;stroke-width:1}
		.st11 {fill:#5b9bd5;fill-opacity:1;stroke:#5b9bd5;stroke-opacity:1;stroke-width:0.28409090909091}
		.st12 {fill:#ffffff;stroke:none;stroke-linecap:butt}
		.st13 {fill:#4f87bb;font-family:Calibri;font-size:1.16666em}
		.st14 {fill:#ffffff;stroke:none;stroke-linecap:butt;stroke-width:7.2}
		.st15 {fill:#000000;font-family:Calibri;font-size:1.00001em}
		.st16 {fill:#ffc000;stroke:#c7c8c8;stroke-width:0.25}
		.st17 {fill:#feffff;font-family:Calibri;font-size:1.33333em}
		.st18 {font-size:1.5em}
		.st19 {fill:#4f88bb;font-family:Calibri;font-size:1.16666em}
		.st20 {fill:#5b9bd5;stroke:#c7c8c8;stroke-width:0.25}
		.st21 {fill:url(#grad0-144);stroke:#4f87bb;stroke-width:0.75}
		.st22 {fill:#4f87bb;font-family:Calibri;font-size:1.99999em}
		.st23 {fill:none;fill-rule:evenodd;font-size:12px;overflow:visible;stroke-linecap:square;stroke-miterlimit:3}
	]]>
	</style>

	<defs id="Patterns_And_Gradients">
		<linearGradient id="grad0-144" x1="0" y1="0" x2="1" y2="0" gradientTransform="rotate(60 0.5 0.5)">
			<stop offset="0" stop-color="#e9eff7" stop-opacity="1"/>
			<stop offset="0.24" stop-color="#f4f7fb" stop-opacity="1"/>
			<stop offset="0.54" stop-color="#feffff" stop-opacity="1"/>
		</linearGradient>
	</defs>
	<defs id="Markers">
		<g id="lend4">
			<path d="M 2 1 L 0 0 L 2 -1 L 2 1 " style="stroke:none"/>
		</g>
		<marker id="mrkr4-48" class="st11" v:arrowType="4" v:arrowSize="2" v:setback="7.04" refX="-7.04" orient="auto"
				markerUnits="strokeWidth" overflow="visible">
			<use xlink:href="#lend4" transform="scale(-3.52,-3.52) "/>
		</marker>
	</defs>
	<defs id="Filters">
		<filter id="filter_2">
			<feGaussianBlur stdDeviation="2"/>
		</filter>
	</defs>
	<g v:mID="0" v:index="1" v:groupContext="foregroundPage">
		<v:userDefs>
			<v:ud v:nameU="msvThemeOrder" v:val="VT0(0):26"/>
		</v:userDefs>
		<title>Страница-1</title>
		<v:pageProperties v:drawingScale="0.0393701" v:pageScale="0.0393701" v:drawingUnits="24" v:shadowOffsetX="8.50394"
				v:shadowOffsetY="-8.50394"/>
		<v:layer v:name="Соединительная линия" v:index="0"/>
		<v:layer v:name="Выноска" v:index="1"/>
		<g id="shape1-1" v:mID="1" v:groupContext="shape" transform="translate(272.372,-268.425)">
			<title>Квадрат</title>
			<desc>Локальный репозиторий с данными</desc>
			<v:userDefs>
				<v:ud v:nameU="visVersion" v:val="VT0(15):26"/>
			</v:userDefs>
			<v:textBlock v:margins="rect(4,4,4,4)" v:tabSpace="42.5197"/>
			<v:textRect cx="40.1575" cy="555.118" width="80.32" height="80.315"/>
			<g id="shadow1-2" v:groupContext="shadow" v:shadowOffsetX="0.345598" v:shadowOffsetY="-1.97279" v:shadowType="1"
					transform="matrix(1,0,0,1,0.345598,1.97279)" class="st1">
				<rect x="0" y="514.961" width="80.315" height="80.315" class="st2"/>
			</g>
			<rect x="0" y="514.961" width="80.315" height="80.315" class="st3"/>
			<text x="11.34" y="544.32" class="st4" v:langID="1049"><v:paragraph v:horizAlign="1"/><v:tabList/>Локальный <tspan
						x="6.83" dy="1.2em" class="st5">репозиторий </tspan><tspan x="12.33" dy="1.2em" class="st5">с данными</tspan></text>		</g>
		<g id="shape3-9" v:mID="3" v:groupContext="shape" transform="translate(70.8661,-542.756)">
			<title>Лист.3</title>
			<desc>Локальный компьютер</desc>
			<v:textBlock v:margins="rect(4,4,4,4)" v:tabSpace="42.5197"/>
			<v:textRect cx="108.866" cy="585.276" width="217.74" height="20"/>
			<rect x="0" y="575.276" width="217.732" height="20" class="st6"/>
			<text x="30.32" y="590.08" class="st7" v:langID="1049"><v:paragraph v:horizAlign="1"/><v:tabList/>Локальный компьютер</text>		</g>
		<g id="shape14-12" v:mID="14" v:groupContext="shape" transform="translate(552.756,-356.693)">
			<title>Квадрат.14</title>
			<desc>Защищенныйрепозиторий с данными GitHub</desc>
			<v:userDefs>
				<v:ud v:nameU="visVersion" v:val="VT0(15):26"/>
			</v:userDefs>
			<v:textBlock v:margins="rect(4,4,4,4)" v:tabSpace="42.5197"/>
			<v:textRect cx="40.1575" cy="555.118" width="80.32" height="80.315"/>
			<g id="shadow14-13" v:groupContext="shadow" v:shadowOffsetX="0.345598" v:shadowOffsetY="-1.97279" v:shadowType="1"
					transform="matrix(1,0,0,1,0.345598,1.97279)" class="st1">
				<rect x="0" y="514.961" width="80.315" height="80.315" class="st2"/>
			</g>
			<rect x="0" y="514.961" width="80.315" height="80.315" class="st3"/>
			<text x="5.57" y="537.12" class="st4" v:langID="1049"><v:paragraph v:horizAlign="1"/><v:tabList/>Защищенный<tspan
						x="6.83" dy="1.2em" class="st5">репозиторий </tspan><tspan x="12.33" dy="1.2em" class="st5">с данными<v:lf/></tspan><tspan
						x="22.94" dy="1.2em" class="st5" v:langID="1033">GitHub</tspan></text>		</g>
		<g id="shape15-21" v:mID="15" v:groupContext="shape" transform="translate(496.063,-522.598)">
			<title>Лист.15</title>
			<desc>Удаленные репозитории на GitHub</desc>
			<v:textBlock v:margins="rect(4,4,4,4)" v:tabSpace="42.5197"/>
			<v:textRect cx="84.3701" cy="573.11" width="168.75" height="44.3307"/>
			<rect x="0" y="550.945" width="168.74" height="44.3307" class="st6"/>
			<text x="45.93" y="568.31" class="st7" v:langID="1049"><v:paragraph v:horizAlign="1"/><v:tabList/>Удаленные <tspan
						x="5.25" dy="1.2em" class="st5">репозитории на </tspan><tspan class="st5" v:langID="1033">GitHub</tspan></text>		</g>
		<g id="shape16-26" v:mID="16" v:groupContext="shape" transform="translate(419.651,-18)">
			<title>Прямоугольник.16</title>
			<desc>Публичный репозиторий с кодом GitHub</desc>
			<v:userDefs>
				<v:ud v:nameU="visVersion" v:val="VT0(15):26"/>
			</v:userDefs>
			<v:textBlock v:margins="rect(4,4,4,4)" v:tabSpace="42.5197"/>
			<v:textRect cx="56.6929" cy="495.879" width="113.39" height="198.792"/>
			<g id="shadow16-27" v:groupContext="shadow" v:shadowOffsetX="0.345598" v:shadowOffsetY="-1.97279" v:shadowType="1"
					transform="matrix(1,0,0,1,0.345598,1.97279)" class="st1">
				<rect x="0" y="396.483" width="113.386" height="198.792" class="st2"/>
			</g>
			<rect x="0" y="396.483" width="113.386" height="198.792" class="st8"/>
			<text x="27.49" y="477.88" class="st4" v:langID="1049"><v:paragraph v:horizAlign="1"/><v:tabList/>Публичный <tspan
						x="19.47" dy="1.2em" class="st5">репозиторий с </tspan><tspan x="40.18" dy="1.2em" class="st5">кодом<v:newlineChar/></tspan><tspan
						x="39.48" dy="1.2em" class="st5" v:langID="1033">GitHub</tspan></text>		</g>
		<g id="shape17-35" v:mID="17" v:groupContext="shape" transform="translate(432.574,-18)">
			<title>Эллипс.17</title>
			<desc>Подмодуль с защищенными данными</desc>
			<v:userDefs>
				<v:ud v:nameU="visVersion" v:val="VT0(15):26"/>
			</v:userDefs>
			<v:textBlock v:margins="rect(4,4,4,4)" v:tabSpace="42.5197"/>
			<v:textRect cx="43.7694" cy="562.576" width="76.6" height="57.2244"/>
			<g id="shadow17-36" v:groupContext="shadow" v:shadowOffsetX="0.345598" v:shadowOffsetY="-1.97279" v:shadowType="1"
					transform="matrix(1,0,0,1,0.345598,1.97279)" class="st1">
				<path d="M0 562.58 A43.7694 32.6997 0 1 1 87.54 562.58 A43.7694 32.6997 0 1 1 -0 562.58 Z" class="st2"/>
			</g>
			<path d="M0 562.58 A43.7694 32.6997 0 1 1 87.54 562.58 A43.7694 32.6997 0 1 1 -0 562.58 Z" class="st3"/>
			<text x="16.02" y="553.58" class="st9" v:langID="1049"><v:paragraph v:horizAlign="1"/><v:tabList/>Подмодуль с <tspan
						x="11.82" dy="1.2em" class="st5">защищенными </tspan><tspan x="23.82" dy="1.2em" class="st5">данными</tspan></text>		</g>
		<g id="shape20-43" v:mID="20" v:groupContext="shape" v:layerMember="0" transform="translate(592.913,-437.008)">
			<title>Динамическая соединительная линия</title>
			<desc>git pull</desc>
			<v:textBlock v:margins="rect(4,4,4,4)" v:tabSpace="42.5197"/>
			<v:textRect cx="-184.326" cy="566.696" width="70" height="24.8035"/>
			<path d="M0 595.28 L0 566.7 L-280.38 566.7 L-280.38 676.5" class="st10"/>
			<rect v:rectContext="textBkgnd" x="-205.305" y="558.297" width="41.9587" height="16.8" class="st12"/>
			<text x="-202.14" y="570.9" class="st13" v:langID="1033"><v:paragraph v:horizAlign="1"/><v:tabList/>git pull</text>		</g>
		<g id="shape22-51" v:mID="22" v:groupContext="shape" v:layerMember="0" transform="translate(352.687,-308.583)">
			<title>Динамическая соединительная линия.22</title>
			<desc>git push</desc>
			<v:textBlock v:margins="rect(4,4,4,4)" v:tabSpace="42.5197"/>
			<v:textRect cx="66.9634" cy="518.071" width="70" height="24.8035"/>
			<path d="M0 595.28 L66.96 595.28 L66.96 507.01 L193.03 507.01" class="st10"/>
			<rect v:rectContext="textBkgnd" x="44.3639" y="509.671" width="45.1989" height="16.8" class="st12"/>
			<text x="44.36" y="522.27" class="st13" v:langID="1033"><v:paragraph v:horizAlign="1"/><v:tabList/>git push</text>		</g>
		<g id="shape25-58" v:mID="25" v:groupContext="shape" v:layerMember="0" transform="translate(533.037,-111.694)">
			<title>Динамическая соединительная линия.25</title>
			<path d="M0 589.57 L10.63 589.57 L10.63 586.8 L12.68 586.8" class="st10"/>
		</g>
		<g id="shape31-63" v:mID="31" v:groupContext="shape" transform="translate(28.3465,-266.063)">
			<title>Трапеция</title>
			<desc>Файлы с данными</desc>
			<v:userDefs>
				<v:ud v:nameU="visVersion" v:prompt="" v:val="VT0(15):26"/>
			</v:userDefs>
			<v:textBlock v:margins="rect(4,4,4,4)" v:tabSpace="42.5197"/>
			<v:textRect cx="56.6929" cy="552.756" width="113.39" height="85.0394"/>
			<g id="shadow31-64" v:groupContext="shadow" v:shadowOffsetX="0.345598" v:shadowOffsetY="-1.97279" v:shadowType="1"
					transform="matrix(1,0,0,1,0.345598,1.97279)" class="st1">
				<path d="M0 595.28 L113.39 595.28 L102.05 510.24 L11.34 510.24 L0 595.28 Z" class="st2"/>
			</g>
			<path d="M0 595.28 L113.39 595.28 L102.05 510.24 L11.34 510.24 L0 595.28 Z" class="st3"/>
			<text x="10.15" y="556.36" class="st4" v:langID="1049"><v:paragraph v:horizAlign="1"/><v:tabList/>Файлы с данными</text>		</g>
		<g id="shape33-69" v:mID="33" v:groupContext="shape" v:layerMember="0" transform="translate(312.53,-342.835)">
			<title>Динамическая соединительная линия.33</title>
			<path d="M0 589.37 L0 528.66 L-221.82 528.66 L-221.82 579.97" class="st10"/>
		</g>
		<g id="shape34-74" v:mID="34" v:groupContext="shape" v:layerMember="0" transform="translate(136.063,-301.496)">
			<title>Динамическая соединительная линия.34</title>
			<desc>git add . git commit –m ‘1’</desc>
			<v:textBlock v:margins="rect(4,4,4,4)" v:tabSpace="42.5197"/>
			<v:textRect cx="68.1547" cy="588.189" width="110.97" height="41.6033"/>
			<path d="M0 588.19 L129.27 588.19" class="st10"/>
			<rect v:rectContext="textBkgnd" x="16.6721" y="571.389" width="99.7971" height="33.5998" class="st14"/>
			<text x="16.67" y="583.99" class="st13" v:langID="1033"><v:paragraph/><v:tabList/>git add .<v:newlineChar/><tspan
						x="16.67" dy="1.2em" class="st5">git commit </tspan>–m ‘1’</text>		</g>
		<g id="shape40-82" v:mID="40" v:groupContext="shape" transform="translate(320.315,-490.236)">
			<title>Лист.40</title>
			<desc>Шаг 1 Получение свежих данных из удаленного репозитория</desc>
			<v:textBlock v:margins="rect(4,4,4,4)" v:tabSpace="42.5197"/>
			<v:textRect cx="99.2742" cy="585.276" width="198.55" height="20"/>
			<rect x="0" y="575.276" width="198.548" height="20" class="st6"/>
			<text x="84.72" y="574.48" class="st15" v:langID="1049"><v:paragraph v:horizAlign="1"/><v:tabList/>Шаг 1<v:lf/><tspan
						x="23.91" dy="1.2em" class="st5">Получение свежих данных из </tspan><tspan x="35.18" dy="1.2em" class="st5">удаленного репозитория</tspan></text>		</g>
		<g id="shape42-87" v:mID="42" v:groupContext="shape" transform="translate(131.052,-362.677)">
			<title>Лист.42</title>
			<desc>Шаг 2 Сохранение в локальный репозиторий после редактирования</desc>
			<v:textBlock v:margins="rect(4,4,4,4)" v:tabSpace="42.5197"/>
			<v:textRect cx="76" cy="585.276" width="152" height="20"/>
			<rect x="0" y="575.276" width="152" height="20" class="st6"/>
			<text x="61.45" y="567.28" class="st15" v:langID="1049"><v:paragraph v:horizAlign="1"/><v:tabList/>Шаг 2<v:lf/><tspan
						x="11.58" dy="1.2em" class="st5">Сохранение в локальный </tspan><tspan x="26.44" dy="1.2em" class="st5">репозиторий после </tspan><tspan
						x="33.93" dy="1.2em" class="st5">редактирования</tspan></text>		</g>
		<g id="shape43-93" v:mID="43" v:groupContext="shape" transform="translate(354.331,-417.008)">
			<title>Лист.43</title>
			<desc>Шаг 3 Обновление защищенного репозитория с данными</desc>
			<v:textBlock v:margins="rect(4,4,4,4)" v:tabSpace="42.5197"/>
			<v:textRect cx="76" cy="585.276" width="152" height="20"/>
			<rect x="0" y="575.276" width="152" height="20" class="st6"/>
			<text x="61.45" y="574.48" class="st15" v:langID="1049"><v:paragraph v:horizAlign="1"/><v:tabList/>Шаг 3<v:lf/><tspan
						x="7.3" dy="1.2em" class="st5">Обновление защищенного </tspan><tspan x="13.88" dy="1.2em" class="st5">репозитория с данными</tspan></text>		</g>
		<g id="shape69-98" v:mID="69" v:groupContext="shape" transform="translate(249.984,-176.857)">
			<title>Лист.69</title>
			<desc>Шаг 4 Автоматическая синхронизация данных между репозиториями...</desc>
			<v:textBlock v:margins="rect(4,4,4,4)" v:tabSpace="42.5197"/>
			<v:textRect cx="76" cy="595.164" width="152" height="0.223788"/>
			<rect x="0" y="595.052" width="152" height="0.223788" class="st6"/>
			<text x="61.45" y="569.96" class="st15" v:langID="1049"><v:paragraph v:horizAlign="1"/><v:tabList/>Шаг 4<v:lf/><tspan
						x="34.83" dy="1.2em" class="st5">Автоматическая </tspan><tspan x="16.31" dy="1.2em" class="st5">синхронизация данных </tspan><tspan
						x="17.17" dy="1.2em" class="st5">между репозиториями </tspan><tspan x="36.76" dy="1.2em" class="st5">(</tspan>после <tspan
						class="st5" v:langID="1033">git push</tspan><tspan class="st5" v:langID="1033">)</tspan></text>		</g>
		<g id="shape73-107" v:mID="73" v:groupContext="shape" transform="translate(708.754,-261.624)">
			<title>Круг.73</title>
			<desc>Провайдер Netlify</desc>
			<v:userDefs>
				<v:ud v:nameU="visVersion" v:val="VT0(15):26"/>
			</v:userDefs>
			<v:textBlock v:margins="rect(4,4,4,4)" v:tabSpace="42.5197"/>
			<v:textRect cx="53.4401" cy="541.836" width="93.53" height="80.1601"/>
			<g id="shadow73-108" v:groupContext="shadow" v:shadowOffsetX="0.345598" v:shadowOffsetY="-1.97279" v:shadowType="1"
					transform="matrix(1,0,0,1,0.345598,1.97279)" class="st1">
				<path d="M0 541.84 A53.4401 53.4401 0 0 1 106.88 541.84 A53.4401 53.4401 0 1 1 0 541.84 Z" class="st2"/>
			</g>
			<path d="M0 541.84 A53.4401 53.4401 0 0 1 106.88 541.84 A53.4401 53.4401 0 1 1 0 541.84 Z" class="st16"/>
			<text x="15.41" y="532.24" class="st17" v:langID="1049"><v:paragraph v:horizAlign="1"/><v:tabList/>Провайдер<v:lf/><tspan
						x="21.1" dy="1.1em" class="st18" v:langID="1033">Netlify</tspan></text>		</g>
		<g id="shape74-114" v:mID="74" v:groupContext="shape" v:layerMember="0" transform="translate(34.0157,-308.583)">
			<title>Динамическая соединительная линия.74</title>
			<desc>Редактирование</desc>
			<v:textBlock v:margins="rect(4,4,4,4)" v:tabSpace="42.5197"/>
			<v:textRect cx="38.7064" cy="689.933" width="109.54" height="24.8035"/>
			<path d="M0 595.28 L-16.3 595.28 L-16.3 689.93 L98.94 689.93 L98.94 658.55 L45.35 658.55 L45.35 644.84" class="st10"/>
			<rect v:rectContext="textBkgnd" x="-10.4779" y="681.533" width="98.3688" height="16.8" class="st12"/>
			<text x="-10.48" y="694.13" class="st13" v:langID="1049"><v:paragraph v:horizAlign="1"/><v:tabList/>Редактирование</text>		</g>
		<g id="shape75-121" v:mID="75" v:groupContext="shape" v:layerMember="0" transform="translate(592.913,-356.693)">
			<title>Динамическая соединительная линия.75</title>
			<path d="M0 595.28 L0 635.6 L-120.88 635.6 L-120.88 703.66 L-203.15 703.66 L-203.15 834.57 L-180.3 834.57" class="st10"/>
		</g>
		<g id="shape78-126" v:mID="78" v:groupContext="shape" v:layerMember="0" transform="translate(609.449,-176.857)">
			<title>Динамическая соединительная линия.78</title>
			<desc>Deploy сайта</desc>
			<v:textBlock v:margins="rect(4,4,4,4)" v:tabSpace="42.5197"/>
			<v:textRect cx="0" cy="476.52" width="86.53" height="24.8035"/>
			<path d="M0 595.28 L0 457.07 L92.27 457.07" class="st10"/>
			<rect v:rectContext="textBkgnd" x="-37.6761" y="468.12" width="75.3525" height="16.8" class="st12"/>
			<text x="-37.68" y="480.72" class="st19" v:langID="1033"><v:paragraph v:horizAlign="1"/><v:tabList/>Deploy сайта</text>		</g>
		<g id="shape77-133" v:mID="77" v:groupContext="shape" transform="translate(552.756,-63.4714)">
			<title>Квадрат.77</title>
			<desc>Автоматическая генерация сайта GitHub Actions</desc>
			<v:userDefs>
				<v:ud v:nameU="visVersion" v:val="VT0(15):26"/>
			</v:userDefs>
			<v:textBlock v:margins="rect(4,4,4,4)" v:tabSpace="42.5197"/>
			<v:textRect cx="56.6929" cy="538.583" width="113.39" height="113.386"/>
			<g id="shadow77-134" v:groupContext="shadow" v:shadowOffsetX="0.345598" v:shadowOffsetY="-1.97279" v:shadowType="1"
					transform="matrix(1,0,0,1,0.345598,1.97279)" class="st1">
				<rect x="0" y="481.89" width="113.386" height="113.386" class="st2"/>
			</g>
			<rect x="0" y="481.89" width="113.386" height="113.386" class="st20"/>
			<text x="15.52" y="527.78" class="st4" v:langID="1049"><v:paragraph v:horizAlign="1"/><v:tabList/>Автоматическая <tspan
						x="14.87" dy="1.2em" class="st5">генерация сайта<v:newlineChar/></tspan><tspan x="20.06" dy="1.2em"
						class="st5" v:langID="1033">GitHub Actions</tspan></text>		</g>
		<g id="shape84-141" v:mID="84" v:groupContext="shape" transform="translate(708.754,-78.387)">
			<title>Эллипс</title>
			<desc>Telegram</desc>
			<v:userDefs>
				<v:ud v:nameU="visVersion" v:val="VT0(15):26"/>
			</v:userDefs>
			<v:textBlock v:margins="rect(4,4,4,4)" v:tabSpace="42.5197"/>
			<v:textRect cx="58.4249" cy="562.576" width="102.25" height="57.2244"/>
			<path d="M0 562.58 A58.4249 32.6997 0 0 1 116.85 562.58 A58.4249 32.6997 0 1 1 0 562.58 Z" class="st21"/>
			<text x="12.72" y="569.78" class="st22" v:langID="1033"><v:paragraph v:horizAlign="1"/><v:tabList/>Telegram</text>		</g>
		<g id="shape87-146" v:mID="87" v:groupContext="shape" v:layerMember="0" transform="translate(609.449,-176.857)">
			<title>Динамическая соединительная линия.87</title>
			<desc>Уведомление</desc>
			<v:textBlock v:margins="rect(4,4,4,4)" v:tabSpace="42.5197"/>
			<v:textRect cx="94.8564" cy="534.423" width="93.02" height="24.8035"/>
			<path d="M0 595.28 L-0 559.53 L157.73 559.53 L157.73 621.31" class="st10"/>
			<rect v:rectContext="textBkgnd" x="53.9332" y="526.023" width="81.8468" height="16.8" class="st12"/>
			<text x="53.93" y="538.62" class="st13" v:langID="1049"><v:paragraph v:horizAlign="1"/><v:tabList/>Уведомление</text>		</g>
	</g>
</svg>
