<svg xmlns="http://www.w3.org/2000/svg" viewBox="0 0 98.83 94.68"><defs><style>.cls-1{fill:#d2e7fa;}.cls-2{fill:#1d1d1b;}</style></defs><g><polygon class="cls-1" points="80.43 82.15 79.46 82.14 78.48 82.13 77.49 82.12 76.47 82.09 75.45 82.07 74.42 82.04 73.37 82 72.31 81.96 71.25 81.91 70.17 81.86 69.08 81.81 67.99 81.75 66.89 81.69 65.78 81.62 63.54 81.48 61.3 81.32 59.03 81.15 56.76 80.97 54.49 80.78 52.22 80.57 51.1 80.47 49.95 80.35 48.77 80.22 47.57 80.08 46.35 79.94 45.1 79.78 43.84 79.61 42.56 79.44 41.27 79.25 39.97 79.06 38.66 78.86 37.33 78.65 36.01 78.44 34.67 78.21 33.34 77.98 32 77.73 30.99 77.13 29.97 76.52 28.95 75.89 27.94 75.27 26.93 74.63 25.92 73.98 24.92 73.33 23.92 72.68 22.93 72.02 21.95 71.36 20.98 70.69 20.02 70.02 19.07 69.35 18.14 68.68 17.21 68 16.31 67.33 15.42 66.66 14.54 65.99 13.68 65.32 12.85 64.66 12.03 63.99 11.24 63.33 10.46 62.68 9.71 62.04 8.99 61.39 8.28 60.76 7.61 60.14 6.97 59.52 6.35 58.91 5.76 58.31 5.2 57.73 4.68 57.15 5.39 55.92 6.13 54.64 6.91 53.31 7.72 51.95 8.56 50.56 9.43 49.15 10.31 47.71 11.21 46.26 12.13 44.81 13.05 43.34 13.98 41.89 14.91 40.43 15.84 38.99 16.76 37.56 17.68 36.17 18.58 34.8 18.82 34.44 19.05 34.09 19.28 33.73 19.51 33.39 19.74 33.04 19.97 32.7 20.2 32.36 20.42 32.02 21 31.16 21.56 30.32 22.11 29.51 22.64 28.73 23.16 27.98 23.66 27.25 24.14 26.56 24.6 25.89 25.04 25.27 25.45 24.68 25.84 24.14 26.21 23.63 26.55 23.17 26.86 22.75 27.15 22.38 27.4 22.05 27.59 21.82 28.13 21.17 28.52 20.7 28.98 20.16 29.51 19.53 30.11 18.84 30.77 18.08 31.49 17.28 32.26 16.41 33.07 15.52 33.92 14.59 34.81 13.63 35.73 12.65 36.69 11.66 37.66 10.67 38.66 9.68 39.67 8.7 40.69 7.74 41.71 6.8 42.73 5.89 43.76 5.02 44.77 4.2 45.77 3.43 46.75 2.72 47.71 2.08 48.64 1.51 49.54 1.02 50.41 0.63 51.23 0.33 52.01 0.13 52.44 0.06 52.88 0.02 53.32 0 53.76 0.01 54.2 0.04 54.66 0.09 55.1 0.17 55.55 0.27 56.01 0.39 56.46 0.53 56.92 0.69 57.37 0.88 57.83 1.08 58.29 1.3 58.75 1.54 59.21 1.8 59.67 2.08 60.13 2.37 60.59 2.68 61.05 3.01 61.51 3.35 61.97 3.7 62.43 4.07 62.89 4.46 63.35 4.85 63.8 5.26 64.26 5.68 64.71 6.11 65.16 6.56 65.61 7.01 66.06 7.48 66.51 7.95 66.63 8.08 66.76 8.21 66.87 8.34 67 8.47 67.12 8.61 67.24 8.75 67.36 8.88 67.48 9.01 68.11 9.73 68.73 10.46 69.34 11.2 69.94 11.95 70.54 12.71 71.14 13.48 71.72 14.25 72.3 15.03 72.86 15.81 73.42 16.59 73.96 17.37 74.5 18.14 75.02 18.92 75.53 19.69 76.03 20.45 76.52 21.21 76.99 21.95 77.45 22.68 77.89 23.4 78.33 24.11 78.74 24.8 79.14 25.46 79.52 26.11 79.89 26.74 80.58 27.93 81.19 29.01 81.73 29.98 82.18 30.82 82.42 32.13 82.65 33.44 82.87 34.76 83.08 36.06 83.28 37.37 83.47 38.66 83.65 39.93 83.82 41.19 83.98 42.42 84.12 43.63 84.26 44.81 84.38 45.95 84.5 47.06 84.6 48.13 84.68 49.16 84.76 50.14 84.81 50.81 84.9 52.1 85.01 53.55 85.13 55.17 85.24 56.92 85.36 58.8 85.48 60.79 85.6 62.84 85.7 64.98 85.75 66.06 85.79 67.15 85.84 68.24 85.87 69.35 85.91 70.45 85.93 71.55 85.95 72.66 85.97 73.75 85.98 74.84 85.98 75.92 85.98 76.99 85.97 78.04 85.95 79.08 85.92 80.1 85.89 81.09 85.85 82.06 84.99 82.09 84.11 82.12 83.22 82.13 82.3 82.14 81.37 82.15 80.43 82.15"/><polygon class="cls-1" points="87.13 81.21 87.17 80.4 87.2 79.58 87.22 78.73 87.23 77.86 87.24 76.99 87.25 76.1 87.25 75.19 87.24 74.27 87.23 73.33 87.21 72.39 87.19 71.43 87.17 70.46 87.13 69.48 87.1 68.49 87.06 67.49 86.97 65.46 86.88 63.4 86.76 61.32 86.64 59.22 86.5 57.1 86.36 54.98 86.21 52.85 86.06 50.71 86.01 50.04 85.95 49.37 85.9 48.66 85.83 47.91 85.75 47.11 85.66 46.26 85.56 45.38 85.46 44.47 85.35 43.53 85.23 42.55 85.1 41.55 84.97 40.52 84.82 39.48 84.66 38.41 84.5 37.32 84.34 36.22 84.16 35.11 85.21 37.65 86.41 40.5 87.72 43.6 89.09 46.91 89.79 48.61 90.5 50.35 91.2 52.1 91.9 53.86 92.59 55.62 93.27 57.38 93.93 59.13 94.57 60.85 95.17 62.55 95.75 64.22 96.3 65.84 96.8 67.42 97.25 68.93 97.66 70.38 98.02 71.77 98.31 73.07 98.55 74.28 98.72 75.39 98.81 76.41 98.83 77.31 98.77 78.09 98.63 78.75 98.39 79.28 98.07 79.66 97.91 79.79 97.74 79.91 97.56 80.02 97.36 80.13 97.15 80.25 96.92 80.35 96.69 80.45 96.44 80.55 96.18 80.65 95.91 80.74 95.62 80.83 95.32 80.92 95.01 81 94.69 81.08 94.36 81.15 94.01 81.22 93.66 81.3 93.29 81.36 92.91 81.43 92.52 81.49 92.12 81.55 91.71 81.6 91.29 81.65 90.86 81.7 90.43 81.75 89.98 81.8 89.52 81.84 89.05 81.88 88.09 81.94 87.1 82.01 87.13 81.21"/><polygon class="cls-1" points="27.07 76.77 25.67 76.48 24.29 76.19 22.92 75.88 21.57 75.56 20.24 75.24 18.93 74.92 17.65 74.58 16.39 74.25 15.16 73.91 13.97 73.56 12.82 73.21 11.69 72.85 10.61 72.49 9.57 72.12 8.57 71.76 7.63 71.39 6.73 71.01 5.87 70.63 5.08 70.25 4.34 69.86 3.66 69.48 3.04 69.09 2.5 68.7 2.01 68.31 1.59 67.91 1.24 67.52 0.96 67.12 0.77 66.72 0.64 66.33 0.6 65.94 0.64 65.54 0.67 65.42 0.71 65.28 0.75 65.14 0.8 65 0.9 64.67 1.03 64.33 1.18 63.95 1.35 63.56 1.54 63.13 1.75 62.68 1.98 62.21 2.22 61.72 2.48 61.2 2.76 60.66 3.06 60.1 3.37 59.52 3.69 58.93 4.03 58.31 4.54 58.86 5.07 59.42 5.63 59.98 6.21 60.55 6.81 61.13 7.44 61.7 8.09 62.29 8.75 62.88 9.44 63.48 10.14 64.07 10.86 64.67 11.6 65.28 12.35 65.88 13.12 66.48 13.9 67.08 14.7 67.69 15.5 68.3 16.32 68.91 17.15 69.51 17.99 70.12 18.83 70.72 19.69 71.31 20.55 71.91 21.42 72.5 22.29 73.09 23.17 73.67 24.05 74.26 24.94 74.83 25.82 75.4 26.7 75.96 27.59 76.51 28.48 77.06 27.07 76.77"/><polygon class="cls-2" points="78 94.66 77.16 94.63 76.28 94.58 75.36 94.5 74.4 94.4 73.4 94.27 72.37 94.13 71.31 93.96 70.21 93.78 69.08 93.57 67.93 93.34 66.75 93.08 65.54 92.81 64.31 92.51 63.06 92.2 61.78 91.86 60.49 91.5 59.19 91.11 57.87 90.71 56.53 90.29 55.18 89.84 53.82 89.38 52.46 88.89 51.08 88.38 49.71 87.85 48.32 87.3 46.94 86.73 45.56 86.14 44.18 85.53 42.8 84.89 41.42 84.24 40.06 83.57 39.38 83.23 38.7 82.88 38.01 82.52 37.32 82.15 36.61 81.77 35.9 81.38 35.18 80.98 34.45 80.58 33.71 80.16 32.98 79.74 32.24 79.31 31.49 78.88 30.74 78.43 29.99 77.98 29.24 77.52 28.48 77.06 27.59 76.51 26.7 75.95 25.82 75.4 24.94 74.83 24.05 74.26 23.17 73.67 22.29 73.09 21.42 72.5 20.55 71.91 19.69 71.31 18.83 70.72 17.99 70.12 17.15 69.51 16.32 68.91 15.5 68.3 14.7 67.69 13.9 67.08 13.12 66.48 12.35 65.88 11.6 65.28 10.87 64.67 10.14 64.07 9.44 63.48 8.75 62.88 8.09 62.29 7.44 61.7 6.81 61.13 6.21 60.55 5.63 59.98 5.07 59.42 4.54 58.86 4.03 58.31 3.68 57.92 3.34 57.53 3.02 57.15 2.71 56.78 2.42 56.4 2.14 56.03 1.88 55.67 1.63 55.31 1.4 54.96 1.19 54.61 0.99 54.27 0.81 53.94 0.72 53.78 0.64 53.61 0.57 53.45 0.5 53.29 0.43 53.13 0.37 52.98 0.32 52.82 0.27 52.67 0.2 52.45 0.14 52.23 0.09 52.02 0.06 51.82 0.03 51.61 0.01 51.41 0 51.22 0 51.02 0.01 50.84 0.03 50.65 0.06 50.47 0.1 50.3 0.15 50.12 0.2 49.96 0.27 49.8 0.34 49.63 0.56 49.24 0.8 48.84 1.06 48.42 1.35 48 1.67 47.56 2.01 47.12 2.37 46.68 2.76 46.23 3.17 45.75 3.61 45.28 4.08 44.8 4.56 44.31 5.08 43.81 5.62 43.29 6.19 42.77 6.78 42.25 7.39 41.71 8.04 41.16 8.71 40.6 9.4 40.04 10.12 39.46 10.87 38.87 11.64 38.28 12.44 37.68 13.27 37.06 14.11 36.44 14.99 35.8 15.9 35.15 16.83 34.5 17.78 33.83 18.77 33.16 19.78 32.48 20.42 32.02 20.2 32.36 19.97 32.7 19.74 33.04 19.51 33.39 19.28 33.73 19.05 34.09 18.82 34.44 18.58 34.8 17.69 35.41 16.83 36.02 15.99 36.62 15.17 37.21 14.38 37.78 13.61 38.35 12.86 38.92 12.14 39.47 11.43 40.01 10.75 40.55 10.1 41.07 9.46 41.59 8.85 42.1 8.26 42.6 7.7 43.09 7.15 43.57 6.63 44.05 6.13 44.51 5.66 44.97 5.2 45.43 4.78 45.87 4.36 46.3 3.97 46.73 3.61 47.14 3.26 47.55 2.94 47.95 2.64 48.35 2.36 48.74 2.1 49.11 1.86 49.49 1.66 49.85 1.46 50.21 1.41 50.31 1.37 50.42 1.33 50.53 1.3 50.64 1.28 50.76 1.27 50.88 1.25 51 1.25 51.13 1.25 51.26 1.27 51.39 1.28 51.53 1.3 51.67 1.33 51.82 1.36 51.97 1.41 52.11 1.46 52.27 1.54 52.53 1.66 52.8 1.77 53.07 1.91 53.35 2.07 53.64 2.24 53.93 2.42 54.23 2.61 54.53 2.83 54.84 3.05 55.16 3.29 55.47 3.54 55.8 3.81 56.13 4.09 56.47 4.38 56.81 4.68 57.15 5.2 57.73 5.76 58.31 6.35 58.91 6.97 59.52 7.61 60.14 8.28 60.76 8.99 61.39 9.71 62.04 10.46 62.68 11.24 63.33 12.03 63.99 12.85 64.66 13.68 65.32 14.54 65.99 15.42 66.66 16.31 67.33 17.21 68 18.14 68.68 19.07 69.35 20.02 70.02 20.98 70.69 21.95 71.36 22.93 72.02 23.92 72.68 24.92 73.34 25.92 73.98 26.93 74.63 27.94 75.27 28.95 75.9 29.97 76.52 30.98 77.13 32 77.73 32.55 78.06 33.1 78.37 33.65 78.69 34.19 79 34.74 79.31 35.28 79.61 35.83 79.92 36.36 80.21 36.9 80.5 37.44 80.8 37.98 81.08 38.51 81.36 39.04 81.64 39.57 81.91 40.09 82.18 40.61 82.45 41.95 83.1 43.3 83.74 44.65 84.36 46.01 84.96 47.38 85.55 48.74 86.1 50.1 86.65 51.47 87.17 52.83 87.67 54.18 88.15 55.52 88.61 56.86 89.05 58.18 89.47 59.49 89.87 60.79 90.25 62.07 90.6 63.33 90.94 64.58 91.26 65.79 91.55 66.99 91.83 68.16 92.08 69.3 92.31 70.41 92.52 71.49 92.71 72.54 92.87 73.56 93.02 74.53 93.14 75.47 93.24 76.37 93.32 77.22 93.37 78.03 93.41 78.8 93.42 79.16 93.42 79.52 93.41 79.86 93.39 80.2 93.37 80.51 93.35 80.82 93.33 81.12 93.29 81.4 93.24 81.67 93.2 81.93 93.15 82.17 93.09 82.4 93.03 82.61 92.97 82.82 92.9 83 92.82 83.17 92.74 83.32 92.66 83.47 92.55 83.61 92.43 83.74 92.28 83.87 92.12 84 91.93 84.12 91.73 84.23 91.52 84.35 91.28 84.45 91.03 84.56 90.77 84.66 90.48 84.75 90.18 84.84 89.87 84.93 89.54 85.01 89.2 85.09 88.84 85.16 88.47 85.24 88.08 85.31 87.68 85.37 87.28 85.43 86.85 85.48 86.42 85.53 85.98 85.59 85.52 85.63 85.06 85.68 84.58 85.72 84.09 85.76 83.6 85.79 83.1 85.82 82.58 85.85 82.06 85.89 81.09 85.93 80.1 85.95 79.08 85.97 78.04 85.98 76.99 85.98 75.92 85.98 74.84 85.97 73.75 85.95 72.66 85.93 71.55 85.91 70.45 85.87 69.35 85.84 68.24 85.79 67.15 85.75 66.06 85.7 64.98 85.6 62.84 85.48 60.79 85.36 58.8 85.24 56.92 85.13 55.17 85.01 53.55 84.9 52.1 84.81 50.81 84.76 50.14 84.68 49.16 84.6 48.13 84.5 47.06 84.38 45.95 84.26 44.81 84.12 43.63 83.98 42.42 83.82 41.19 83.65 39.93 83.47 38.66 83.28 37.37 83.08 36.06 82.87 34.76 82.65 33.44 82.42 32.13 82.18 30.82 82 29.85 81.81 28.88 81.62 27.93 81.42 26.98 81.22 26.04 81.01 25.11 80.8 24.19 80.59 23.28 80.36 22.39 80.14 21.52 79.91 20.66 79.68 19.82 79.44 19.01 79.2 18.21 78.95 17.44 78.7 16.69 78.45 15.96 78.19 15.27 77.93 14.61 77.67 13.97 77.39 13.37 77.12 12.79 76.85 12.26 76.57 11.76 76.29 11.29 76 10.87 75.71 10.49 75.42 10.15 75.13 9.85 74.84 9.6 74.53 9.38 74.24 9.23 74.09 9.16 73.93 9.11 73.78 9.05 73.62 8.99 73.45 8.95 73.28 8.9 73.11 8.86 72.94 8.82 72.76 8.79 72.58 8.76 72.38 8.73 72.19 8.71 71.99 8.69 71.8 8.67 71.59 8.66 71.38 8.65 71.17 8.65 70.95 8.64 70.73 8.65 70.5 8.65 70.27 8.66 70.04 8.68 69.8 8.69 69.56 8.72 69.31 8.74 69.07 8.77 68.81 8.8 68.55 8.83 68.02 8.92 67.48 9.01 67.36 8.88 67.24 8.75 67.12 8.61 67 8.47 66.87 8.34 66.76 8.21 66.63 8.08 66.51 7.95 66.84 7.88 67.16 7.81 67.48 7.75 67.8 7.69 68.11 7.64 68.42 7.6 68.72 7.56 69.02 7.52 69.31 7.49 69.6 7.46 69.88 7.44 70.16 7.42 70.44 7.41 70.71 7.4 70.97 7.39 71.23 7.4 71.49 7.41 71.74 7.42 71.98 7.43 72.22 7.46 72.46 7.48 72.69 7.51 72.92 7.54 73.14 7.59 73.36 7.63 73.57 7.68 73.78 7.74 73.98 7.79 74.18 7.86 74.37 7.93 74.56 8 74.74 8.08 75.14 8.29 75.53 8.57 75.92 8.91 76.29 9.31 76.67 9.77 77.03 10.28 77.39 10.84 77.75 11.46 78.1 12.13 78.44 12.83 78.77 13.58 79.1 14.38 79.42 15.21 79.73 16.07 80.04 16.98 80.34 17.91 80.63 18.87 80.91 19.86 81.19 20.87 81.46 21.9 81.73 22.95 81.99 24.02 82.24 25.11 82.48 26.2 82.72 27.31 82.95 28.42 83.17 29.53 83.38 30.65 83.58 31.78 83.78 32.89 83.97 34.01 84.16 35.11 84.34 36.22 84.5 37.32 84.66 38.41 84.82 39.48 84.97 40.52 85.1 41.55 85.23 42.55 85.35 43.53 85.46 44.47 85.56 45.38 85.66 46.26 85.75 47.11 85.83 47.91 85.9 48.66 85.95 49.37 86.01 50.04 86.06 50.71 86.21 52.85 86.36 54.98 86.5 57.1 86.64 59.22 86.76 61.32 86.88 63.4 86.97 65.46 87.06 67.49 87.1 68.49 87.13 69.48 87.17 70.46 87.19 71.43 87.21 72.39 87.23 73.33 87.23 74.27 87.25 75.19 87.25 76.1 87.24 76.99 87.23 77.86 87.22 78.73 87.2 79.58 87.17 80.4 87.13 81.21 87.1 82.01 87.06 82.59 87.02 83.18 86.98 83.74 86.94 84.3 86.89 84.84 86.83 85.37 86.77 85.89 86.71 86.39 86.64 86.89 86.57 87.37 86.49 87.83 86.41 88.28 86.33 88.72 86.24 89.14 86.15 89.54 86.05 89.93 85.94 90.31 85.83 90.67 85.72 91.01 85.6 91.34 85.47 91.65 85.34 91.94 85.21 92.22 85.06 92.47 84.92 92.72 84.77 92.93 84.61 93.14 84.45 93.33 84.27 93.49 84.1 93.64 83.92 93.76 83.73 93.86 83.53 93.96 83.3 94.06 83.07 94.14 82.82 94.22 82.56 94.29 82.28 94.36 81.99 94.42 81.69 94.47 81.37 94.52 81.04 94.56 80.7 94.6 80.35 94.63 79.97 94.64 79.6 94.66 79.2 94.67 78.8 94.68 78 94.66"/><polygon class="cls-2" points="56.03 70.62 55.84 69.95 55.66 69.33 55.48 68.76 55.31 68.22 55.14 67.71 54.98 67.23 54.82 66.78 54.67 66.35 54.58 66.11 54.41 65.61 54.16 64.9 53.84 64.01 53.47 62.98 53.05 61.83 52.62 60.6 52.17 59.33 51.71 58.05 51.26 56.79 50.83 55.59 50.44 54.49 50.09 53.52 49.8 52.71 49.58 52.09 49.45 51.71 49.32 51.35 49.17 50.91 49 50.42 48.82 49.88 48.63 49.3 48.42 48.7 48.21 48.09 48 47.48 47.8 46.88 47.6 46.29 47.41 45.75 47.24 45.24 47.09 44.79 46.95 44.41 46.85 44.1 46.77 43.89 46.69 44.1 46.58 44.41 46.45 44.79 46.29 45.24 46.12 45.75 45.93 46.29 45.73 46.88 45.52 47.48 45.32 48.09 45.11 48.7 44.91 49.3 44.71 49.88 44.52 50.42 44.36 50.91 44.21 51.35 44.08 51.71 43.94 52.09 43.73 52.71 43.44 53.52 43.09 54.49 42.7 55.59 42.27 56.79 41.82 58.05 41.36 59.33 40.91 60.6 40.47 61.83 40.06 62.98 39.69 64.01 39.37 64.9 39.12 65.61 38.95 66.11 38.86 66.35 38.7 66.78 38.55 67.23 38.38 67.71 38.22 68.22 38.05 68.76 37.87 69.33 37.69 69.95 37.49 70.62 33.75 70.62 33.79 70.59 33.89 70.52 34.05 70.38 34.26 70.18 34.38 70.05 34.52 69.91 34.66 69.75 34.81 69.57 34.97 69.37 35.14 69.15 35.31 68.91 35.49 68.65 35.72 68.28 35.97 67.85 36.23 67.36 36.51 66.82 36.8 66.22 37.11 65.57 37.43 64.88 37.75 64.15 38.09 63.38 38.43 62.57 38.78 61.74 39.13 60.89 39.49 60.01 39.85 59.11 40.21 58.2 40.57 57.28 41.29 55.42 41.99 53.58 42.66 51.77 43.3 50.04 43.9 48.4 44.43 46.9 44.91 45.56 45.3 44.41 45.4 44.12 45.49 43.83 45.58 43.53 45.65 43.24 45.72 42.95 45.79 42.65 45.85 42.36 45.91 42.07 46.01 41.5 46.1 40.96 46.17 40.45 46.23 39.98 47.34 39.98 47.36 40.21 47.38 40.45 47.42 40.71 47.46 40.98 47.5 41.25 47.55 41.53 47.59 41.82 47.64 42.12 47.71 42.42 47.77 42.73 47.84 43.04 47.92 43.35 48 43.66 48.09 43.98 48.18 44.29 48.28 44.6 48.67 45.75 49.14 47.09 49.67 48.58 50.26 50.2 50.89 51.93 51.57 53.72 52.26 55.55 52.98 57.38 53.33 58.29 53.69 59.19 54.05 60.08 54.4 60.95 54.75 61.8 55.11 62.62 55.45 63.41 55.78 64.18 56.11 64.9 56.42 65.59 56.72 66.23 57.02 66.82 57.29 67.37 57.56 67.85 57.8 68.29 58.03 68.65 58.21 68.91 58.39 69.15 58.55 69.37 58.71 69.57 58.87 69.75 59.01 69.91 59.15 70.05 59.27 70.18 59.48 70.38 59.64 70.52 59.74 70.59 59.78 70.62 56.03 70.62"/><polygon class="cls-2" points="53.09 64.15 52.99 64.09 52.89 64.02 52.78 63.95 52.55 63.78 52.3 63.59 52.01 63.39 51.71 63.18 51.54 63.07 51.37 62.97 51.19 62.86 51 62.75 50.81 62.65 50.61 62.55 50.39 62.45 50.18 62.35 49.95 62.26 49.71 62.17 49.46 62.09 49.2 62.01 48.94 61.94 48.66 61.88 48.37 61.82 48.08 61.78 47.77 61.74 47.45 61.71 47.12 61.69 46.78 61.69 46.44 61.69 46.11 61.71 45.79 61.74 45.48 61.78 45.19 61.82 44.9 61.88 44.62 61.94 44.35 62.01 44.09 62.09 43.84 62.17 43.6 62.26 43.38 62.35 43.15 62.45 42.94 62.55 42.73 62.65 42.54 62.75 42.35 62.86 42.17 62.97 42 63.07 41.83 63.18 41.52 63.39 41.24 63.59 40.98 63.78 40.75 63.95 40.64 64.02 40.54 64.09 40.44 64.15 40.35 64.21 41 62.36 41.15 62.26 41.32 62.13 41.52 61.98 41.73 61.82 41.98 61.65 42.26 61.47 42.41 61.38 42.56 61.29 42.72 61.2 42.89 61.12 43.07 61.02 43.26 60.94 43.45 60.85 43.65 60.77 43.86 60.7 44.09 60.63 44.31 60.56 44.55 60.49 44.8 60.44 45.05 60.38 45.31 60.34 45.59 60.3 45.87 60.27 46.16 60.25 46.46 60.23 46.78 60.23 46.78 60.16 46.78 60.23 47.09 60.23 47.4 60.25 47.69 60.27 47.97 60.3 48.24 60.34 48.5 60.38 48.76 60.44 49 60.49 49.24 60.56 49.47 60.63 49.68 60.7 49.89 60.77 50.1 60.85 50.29 60.94 50.47 61.02 50.65 61.12 50.82 61.2 50.98 61.29 51.13 61.38 51.28 61.47 51.55 61.65 51.8 61.82 52.01 61.98 52.21 62.13 52.38 62.26 52.52 62.36 53.19 64.21 53.09 64.15"/><polygon class="cls-2" points="27.88 44.64 27.77 44.64 27.65 44.63 27.53 44.62 27.42 44.61 27.3 44.59 27.19 44.57 27.09 44.54 26.98 44.51 26.87 44.48 26.77 44.44 26.66 44.4 26.56 44.35 26.46 44.3 26.36 44.24 26.27 44.19 26.17 44.12 26.07 44.06 25.98 43.99 25.89 43.91 25.8 43.83 25.71 43.75 25.63 43.66 25.54 43.57 25.46 43.47 25.38 43.37 25.3 43.27 25.22 43.16 25.14 43.05 25.07 42.94 24.99 42.82 24.93 42.7 24.85 42.57 24.73 42.34 24.63 42.12 24.52 41.89 24.43 41.65 24.34 41.41 24.26 41.16 24.2 40.91 24.13 40.66 24.07 40.4 24.02 40.13 23.99 39.87 23.95 39.59 23.92 39.31 23.91 39.03 23.89 38.74 23.89 38.45 23.89 38.14 23.91 37.84 23.93 37.53 23.95 37.24 23.99 36.96 24.04 36.67 24.09 36.4 24.15 36.13 24.23 35.86 24.3 35.61 24.39 35.35 24.49 35.1 24.59 34.86 24.7 34.63 24.82 34.4 24.95 34.17 25.02 34.06 25.09 33.95 25.16 33.83 25.25 33.73 25.32 33.62 25.4 33.52 25.48 33.43 25.56 33.34 25.65 33.25 25.73 33.17 25.81 33.09 25.91 33.01 25.99 32.94 26.08 32.87 26.17 32.8 26.27 32.74 26.36 32.69 26.46 32.63 26.55 32.58 26.65 32.53 26.75 32.49 26.85 32.45 26.96 32.41 27.06 32.38 27.17 32.36 27.27 32.33 27.38 32.31 27.49 32.3 27.6 32.28 27.72 32.27 27.83 32.27 27.95 32.27 28.06 32.27 28.17 32.28 28.29 32.29 28.4 32.3 28.5 32.33 28.61 32.36 28.72 32.39 28.82 32.43 28.93 32.47 29.03 32.52 29.13 32.57 29.23 32.63 29.33 32.69 29.43 32.76 29.53 32.83 29.62 32.91 29.74 33.02 29.86 33.14 29.98 33.27 30.08 33.4 30.19 33.54 30.29 33.69 30.39 33.85 30.48 34.01 30.05 34.3 29.99 34.18 29.92 34.06 29.85 33.95 29.77 33.83 29.62 33.62 29.45 33.41 29.4 33.35 29.34 33.29 29.28 33.23 29.21 33.17 29.13 33.11 29.05 33.05 28.96 33 28.88 32.95 28.78 32.9 28.68 32.86 28.57 32.82 28.46 32.79 28.35 32.76 28.23 32.74 28.11 32.72 27.98 32.7 27.91 32.7 27.85 32.7 27.7 32.71 27.57 32.72 27.44 32.75 27.31 32.78 27.18 32.82 27.07 32.88 26.95 32.95 26.84 33.02 26.73 33.12 26.62 33.22 26.52 33.33 26.42 33.46 26.32 33.61 26.22 33.77 26.12 33.94 26.03 34.13 25.94 34.32 25.86 34.52 25.78 34.72 25.71 34.93 25.64 35.15 25.57 35.37 25.52 35.6 25.46 35.84 25.41 36.08 25.38 36.34 25.34 36.6 25.31 36.87 25.28 37.14 25.27 37.42 25.26 37.7 25.25 38 25.26 38.28 25.26 38.55 25.28 38.82 25.3 39.09 25.33 39.34 25.36 39.6 25.4 39.85 25.44 40.09 25.49 40.33 25.54 40.57 25.6 40.79 25.66 41.01 25.73 41.23 25.8 41.44 25.87 41.65 25.95 41.84 26.05 42.08 26.14 42.32 26.24 42.54 26.34 42.75 26.44 42.95 26.55 43.14 26.66 43.31 26.77 43.47 26.83 43.55 26.89 43.62 26.96 43.68 27.02 43.75 27.09 43.8 27.16 43.86 27.23 43.9 27.3 43.95 27.38 43.99 27.46 44.02 27.54 44.05 27.62 44.07 27.71 44.09 27.8 44.1 27.9 44.12 27.99 44.12 28.09 44.12 28.2 44.1 28.3 44.09 28.4 44.08 28.49 44.06 28.57 44.02 28.67 43.99 28.75 43.96 28.84 43.91 28.91 43.86 29 43.81 29.08 43.75 29.16 43.68 29.24 43.62 29.32 43.54 29.4 43.46 29.53 43.33 29.64 43.19 29.75 43.05 29.85 42.88 29.95 42.72 30.05 42.54 30.14 42.35 30.22 42.16 30.73 42.43 30.62 42.66 30.5 42.88 30.44 42.98 30.38 43.08 30.32 43.18 30.25 43.27 30.18 43.37 30.11 43.46 30.03 43.55 29.96 43.63 29.89 43.72 29.8 43.79 29.72 43.87 29.64 43.94 29.53 44.03 29.43 44.1 29.32 44.18 29.22 44.25 29.11 44.31 29.01 44.37 28.9 44.42 28.79 44.47 28.68 44.51 28.57 44.55 28.46 44.57 28.35 44.59 28.23 44.61 28.12 44.63 28 44.64 27.88 44.64"/><polygon class="cls-2" points="37.09 44.34 37.09 39.08 32.76 39.08 32.76 44.33 32.57 44.33 31.6 43.51 31.6 33.12 32.76 32.33 32.76 38.42 37.09 38.42 37.09 32.31 38.26 33.12 38.26 43.32 37.2 44.34 37.09 44.34"/><polygon class="cls-2" points="41.16 44.34 40.08 43.3 40.08 33.21 41.25 32.32 41.25 44.34 41.16 44.34"/><polygon class="cls-2" points="46.32 38.38 46.76 28.64 47.24 38.38 46.32 38.38"/><rect class="cls-2" x="45.58" y="38.38" width="2.4" height="0.71"/><polygon class="cls-2" points="57.95 44.33 57.95 39.08 53.62 39.08 53.62 44.33 53.56 44.33 52.45 43.57 52.45 33.17 53.62 32.38 53.62 38.42 57.95 38.42 57.95 32.3 58.03 32.3 59.12 33.05 59.12 43.61 58.06 44.33 57.95 44.33"/><polygon class="cls-2" points="62.51 44.34 61.43 43.44 61.43 33.28 62.6 32.39 62.6 40.11 67.66 35.1 67.66 32.3 67.78 32.3 68.83 33.02 68.83 43.22 67.66 44.33 67.66 44.33 67.66 36.2 62.57 41.27 62.55 44.34 62.51 44.34"/><polygon class="cls-2" points="77 44.33 77 36.2 72.01 41.21 72.01 44.24 71.85 44.25 70.78 43.35 70.78 33.21 71.94 32.32 71.94 40.15 77 35.1 77 32.3 77.05 32.3 78.17 33.2 78.17 43.28 77.08 44.33 77 44.33"/><polygon class="cls-2" points="74.47 32.18 74.39 32.18 74.3 32.17 74.21 32.15 74.13 32.12 74.05 32.09 73.98 32.05 73.9 32 73.83 31.95 73.77 31.89 73.72 31.83 73.67 31.76 73.62 31.7 73.58 31.61 73.55 31.54 73.52 31.46 73.5 31.37 74.47 30.83 75.43 31.47 75.4 31.55 75.37 31.62 75.33 31.69 75.29 31.76 75.24 31.82 75.19 31.88 75.13 31.93 75.07 31.98 75.01 32.02 74.94 32.07 74.87 32.1 74.79 32.13 74.72 32.15 74.64 32.17 74.56 32.18 74.47 32.18"/><polygon class="cls-2" points="51.89 45.69 51.72 45.58 51.53 45.47 51.36 45.34 51.18 45.2 51.02 45.04 50.85 44.88 50.7 44.71 50.54 44.52 50.39 44.32 50.24 44.12 50.11 43.9 49.97 43.68 49.84 43.44 49.72 43.19 49.6 42.95 49.49 42.68 49.39 42.41 49.29 42.13 49.2 41.85 49.11 41.56 49.03 41.27 48.96 40.96 48.9 40.65 48.84 40.33 48.79 40.01 48.75 39.69 48.72 39.35 48.69 39.02 48.67 38.67 48.67 38.33 48.67 37.98 48.67 37.73 48.68 37.48 48.69 37.24 48.71 36.99 48.74 36.75 48.76 36.52 48.79 36.28 48.83 36.05 48.87 35.82 48.91 35.59 48.96 35.37 49.01 35.14 49.06 34.92 49.12 34.71 49.18 34.5 49.24 34.29 49.31 34.09 49.38 33.88 49.45 33.69 49.53 33.49 49.62 33.31 49.7 33.12 49.78 32.94 49.87 32.77 49.97 32.59 50.06 32.43 50.16 32.27 50.26 32.1 50.36 31.96 50.47 31.81 50.58 31.66 50.69 31.53 50.97 31.65 50.89 31.79 50.81 31.94 50.73 32.1 50.65 32.25 50.58 32.41 50.51 32.58 50.45 32.75 50.39 32.92 50.33 33.1 50.27 33.28 50.22 33.45 50.16 33.64 50.12 33.83 50.08 34.02 50.03 34.21 50 34.4 49.93 34.81 49.87 35.22 49.82 35.63 49.77 36.06 49.74 36.5 49.72 36.95 49.7 37.39 49.7 37.85 49.69 38.19 49.7 38.51 49.7 38.84 49.71 39.16 49.73 39.48 49.75 39.8 49.78 40.11 49.81 40.41 49.84 40.72 49.89 41.01 49.94 41.3 49.98 41.58 50.04 41.86 50.1 42.13 50.16 42.41 50.24 42.67 50.31 42.92 50.39 43.17 50.48 43.41 50.57 43.64 50.67 43.86 50.77 44.08 50.88 44.29 50.99 44.5 51.11 44.69 51.23 44.87 51.36 45.05 51.49 45.22 51.63 45.37 51.78 45.51 51.92 45.65 52.08 45.78 51.89 45.69"/><polygon class="cls-2" points="41.5 45.65 41.65 45.51 41.79 45.37 41.94 45.22 42.07 45.05 42.2 44.87 42.32 44.69 42.44 44.5 42.55 44.29 42.66 44.08 42.76 43.86 42.86 43.64 42.95 43.41 43.04 43.17 43.12 42.92 43.19 42.67 43.26 42.41 43.33 42.13 43.39 41.86 43.44 41.58 43.5 41.3 43.54 41.01 43.59 40.72 43.62 40.41 43.65 40.11 43.68 39.8 43.7 39.48 43.72 39.16 43.73 38.84 43.73 38.51 43.74 38.19 43.73 37.85 43.73 37.39 43.71 36.95 43.69 36.5 43.65 36.06 43.61 35.63 43.56 35.22 43.51 34.81 43.43 34.4 43.39 34.21 43.35 34.02 43.31 33.83 43.26 33.64 43.22 33.45 43.16 33.28 43.1 33.1 43.04 32.92 42.98 32.75 42.92 32.58 42.85 32.41 42.78 32.25 42.7 32.1 42.62 31.94 42.54 31.79 42.45 31.65 42.75 31.53 42.85 31.66 42.96 31.81 43.07 31.96 43.17 32.1 43.27 32.27 43.37 32.43 43.46 32.59 43.55 32.77 43.65 32.94 43.73 33.12 43.81 33.31 43.9 33.49 43.98 33.69 44.05 33.88 44.12 34.09 44.19 34.29 44.25 34.5 44.31 34.71 44.37 34.92 44.43 35.14 44.48 35.37 44.52 35.59 44.56 35.82 44.6 36.05 44.64 36.28 44.67 36.52 44.69 36.75 44.72 36.99 44.73 37.24 44.75 37.48 44.76 37.73 44.76 37.98 44.76 38.33 44.75 38.67 44.73 39.02 44.71 39.35 44.68 39.69 44.64 40.01 44.59 40.33 44.53 40.65 44.47 40.96 44.4 41.27 44.32 41.56 44.23 41.85 44.14 42.13 44.04 42.41 43.94 42.68 43.83 42.95 43.71 43.19 43.59 43.44 43.46 43.68 43.33 43.9 43.18 44.12 43.04 44.32 42.89 44.52 42.73 44.71 42.58 44.88 42.41 45.04 42.24 45.2 42.07 45.34 41.9 45.47 41.71 45.58 41.53 45.69 41.35 45.78 41.5 45.65"/><polygon class="cls-2" points="23.97 70.47 24.02 70.43 24.15 70.32 24.24 70.25 24.34 70.15 24.44 70.04 24.55 69.92 24.65 69.79 24.76 69.65 24.81 69.58 24.85 69.5 24.9 69.42 24.94 69.33 24.98 69.25 25.01 69.17 25.04 69.08 25.07 68.99 25.09 68.9 25.1 68.81 25.12 68.72 25.12 68.63 25.12 51.61 25.12 51.48 25.1 51.35 25.09 51.23 25.07 51.11 25.04 50.99 25.01 50.88 24.98 50.77 24.94 50.66 24.9 50.56 24.85 50.47 24.81 50.37 24.76 50.28 24.65 50.11 24.55 49.96 24.44 49.83 24.34 49.71 24.24 49.61 24.15 49.52 24.02 49.41 23.97 49.37 36.93 49.37 36.04 50.4 35.59 50.94 35.17 50.91 34.84 50.88 34.6 50.86 34.43 50.85 34.31 50.84 34.23 50.83 34.16 50.83 34.1 50.83 33.93 50.83 27.56 50.83 27.56 55.51 31.6 57.35 32.34 57.77 33 58.14 33.29 58.31 33.57 58.47 33.82 58.62 34.06 58.77 34.28 58.93 34.5 59.08 34.7 59.23 34.89 59.4 35.08 59.57 35.26 59.75 35.44 59.94 35.62 60.15 35.77 60.35 35.91 60.55 36.06 60.76 36.2 60.99 36.35 61.23 36.48 61.48 36.62 61.73 36.74 61.98 36.86 62.24 36.96 62.49 37.06 62.74 37.14 62.99 37.21 63.23 37.27 63.47 37.28 63.58 37.3 63.69 37.32 63.8 37.32 63.9 35.77 66.99 35.74 65.47 35.72 65.24 35.69 65.02 35.65 64.8 35.6 64.57 35.56 64.35 35.51 64.13 35.45 63.91 35.39 63.69 35.32 63.48 35.24 63.27 35.16 63.05 35.07 62.84 34.97 62.64 34.86 62.43 34.75 62.23 34.62 62.02 34.49 61.82 34.34 61.62 34.19 61.42 34.03 61.23 33.86 61.03 33.67 60.85 33.48 60.66 33.28 60.47 33.05 60.29 32.83 60.1 32.58 59.92 32.33 59.75 32.06 59.58 31.78 59.4 31.48 59.24 31.18 59.07 27.47 57.28 27.56 69.23 34.42 69.23 34.38 69.28 34.26 69.44 34.07 69.66 33.83 69.92 33.64 70.11 33.45 70.29 33.31 70.42 33.25 70.47 23.97 70.47"/><polygon class="cls-2" points="73.19 70.66 72.98 70.65 72.78 70.64 72.58 70.63 72.38 70.61 72.18 70.58 71.98 70.55 71.78 70.51 71.59 70.47 71.39 70.42 71.21 70.36 71.02 70.3 70.83 70.23 70.65 70.16 70.47 70.08 70.29 70 70.11 69.91 69.94 69.81 69.76 69.71 69.6 69.6 69.43 69.49 69.27 69.37 69.12 69.24 68.96 69.11 68.81 68.97 68.66 68.83 68.52 68.68 68.38 68.53 68.24 68.37 68.11 68.21 67.98 68.03 67.86 67.85 67.73 67.67 67.62 67.48 67.51 67.29 67.4 67.09 67.29 66.89 67.19 66.69 67.1 66.48 67 66.27 66.91 66.05 66.82 65.83 66.74 65.6 66.66 65.37 66.59 65.14 66.52 64.9 66.45 64.66 66.38 64.42 66.32 64.17 66.26 63.92 66.21 63.66 66.16 63.4 66.11 63.14 66.07 62.86 66.03 62.59 66 62.32 65.97 62.03 65.94 61.75 65.92 61.46 65.9 61.16 65.88 60.87 65.87 60.57 65.85 60.26 65.85 59.96 65.85 59.64 65.85 59.51 65.85 59.39 65.85 59.26 65.85 59.13 66.03 58.91 66.21 58.69 66.39 58.44 66.55 58.19 66.71 57.93 66.87 57.66 67.03 57.37 67.18 57.09 67.31 56.78 67.45 56.47 67.57 56.16 67.69 55.83 67.8 55.5 67.9 55.16 67.99 54.81 68.07 54.46 68.17 53.97 68.26 53.55 68.34 53.17 68.41 52.83 68.47 52.49 68.52 52.16 68.56 51.82 68.6 51.45 68.6 51.36 68.61 51.22 68.63 51.13 68.65 51.04 68.67 50.93 68.7 50.81 68.82 50.69 68.94 50.56 69.07 50.45 69.19 50.34 69.32 50.22 69.45 50.12 69.58 50.02 69.72 49.92 69.84 49.83 69.98 49.74 70.12 49.65 70.26 49.57 70.4 49.5 70.54 49.42 70.69 49.35 70.83 49.29 70.98 49.23 71.13 49.17 71.28 49.11 71.43 49.06 71.59 49.02 71.74 48.98 71.9 48.94 72.06 48.9 72.22 48.88 72.38 48.85 72.55 48.83 72.72 48.81 72.88 48.8 73.05 48.78 73.22 48.78 73.4 48.78 73.66 48.78 73.93 48.8 74.2 48.83 74.47 48.87 74.74 48.92 75.02 48.98 75.29 49.06 75.56 49.15 75.7 49.2 75.84 49.26 75.98 49.33 76.12 49.39 76.26 49.47 76.4 49.56 76.53 49.65 76.66 49.75 76.79 49.85 76.92 49.96 77.04 50.08 77.16 50.19 77.27 50.31 77.38 50.43 77.48 50.56 77.57 50.69 77.68 50.85 77.79 51 77.88 51.15 77.97 51.29 78.13 51.56 78.25 51.8 78.36 52.02 78.44 52.22 78.5 52.4 78.55 52.55 78.46 52.59 78.36 52.63 78.26 52.67 78.15 52.73 78.05 52.79 77.95 52.86 77.85 52.95 77.75 53.03 77.65 53.13 77.56 53.22 77.47 53.33 77.38 53.44 77.29 53.55 77.21 53.66 77.14 53.77 77.07 53.89 76.92 54.13 76.79 54.37 76.68 54.6 76.58 54.82 76.53 54.37 76.48 53.91 76.42 53.44 76.36 52.99 76.29 52.57 76.21 52.2 76.18 52.04 76.14 51.9 76.1 51.78 76.06 51.69 76.02 51.57 75.95 51.46 75.9 51.35 75.84 51.25 75.78 51.15 75.71 51.05 75.65 50.96 75.58 50.87 75.52 50.79 75.45 50.72 75.38 50.65 75.31 50.57 75.23 50.5 75.16 50.44 75.08 50.38 75.01 50.33 74.94 50.28 74.85 50.23 74.78 50.19 74.7 50.14 74.62 50.11 74.54 50.08 74.46 50.04 74.38 50.02 74.29 49.99 74.21 49.98 74.13 49.96 74.05 49.95 73.88 49.93 73.7 49.92 73.61 49.92 73.51 49.93 73.42 49.94 73.32 49.95 73.17 49.98 73.03 50 72.9 50.03 72.77 50.06 72.65 50.1 72.53 50.14 72.41 50.19 72.3 50.24 72.2 50.29 72.09 50.34 71.99 50.4 71.89 50.47 71.8 50.53 71.7 50.61 71.61 50.69 71.52 50.77 71.43 50.86 71.35 50.95 71.26 51.05 71.17 51.15 71.09 51.27 71.01 51.38 70.93 51.5 70.84 51.63 70.67 51.9 70.51 52.2 70.33 52.52 70.15 52.87 69.97 53.22 69.81 53.57 69.66 53.94 69.51 54.32 69.44 54.51 69.37 54.71 69.31 54.91 69.25 55.11 69.18 55.32 69.13 55.52 69.07 55.74 69.02 55.95 68.97 56.17 68.93 56.39 68.89 56.62 68.86 56.84 68.83 57.07 68.8 57.3 68.77 57.53 68.75 57.77 68.74 58.01 68.73 58.25 68.72 58.49 68.72 58.74 68.72 58.99 68.73 59.25 68.75 59.5 68.76 59.76 68.81 60.23 68.86 60.71 68.92 61.21 68.98 61.7 69.05 62.21 69.13 62.71 69.22 63.21 69.31 63.69 69.41 64.17 69.51 64.63 69.62 65.07 69.73 65.48 69.8 65.68 69.86 65.87 69.92 66.05 69.98 66.22 70.05 66.38 70.11 66.53 70.18 66.68 70.25 66.81 70.34 66.97 70.43 67.13 70.52 67.28 70.62 67.41 70.71 67.55 70.81 67.67 70.9 67.79 71 67.9 71.09 68.01 71.19 68.11 71.29 68.21 71.39 68.29 71.49 68.37 71.59 68.45 71.69 68.52 71.79 68.58 71.9 68.65 72 68.7 72.1 68.75 72.2 68.8 72.31 68.84 72.41 68.88 72.52 68.91 72.62 68.94 72.73 68.96 72.83 68.99 72.94 69.01 73.04 69.02 73.25 69.04 73.47 69.05 73.5 69.05 73.56 69.05 73.64 69.04 73.7 69.04 73.78 69.03 73.93 68.99 74.08 68.94 74.24 68.89 74.39 68.83 74.55 68.75 74.71 68.67 74.86 68.58 75.01 68.48 75.16 68.38 75.31 68.27 75.44 68.16 75.57 68.05 75.69 67.93 75.81 67.82 75.95 67.67 76.09 67.51 76.21 67.34 76.34 67.18 76.45 67 76.56 66.82 76.67 66.64 76.78 66.47 76.87 66.28 76.96 66.09 77.04 65.9 77.13 65.72 77.2 65.52 77.28 65.34 77.34 65.15 77.41 64.97 77.46 65.13 77.51 65.28 77.56 65.44 77.61 65.58 77.66 65.74 77.7 65.89 77.75 66.03 77.8 66.17 77.83 66.28 77.88 66.39 77.92 66.49 77.96 66.58 78.01 66.66 78.06 66.74 78.11 66.82 78.16 66.89 78.22 66.95 78.27 67.01 78.33 67.07 78.39 67.12 78.44 67.16 78.5 67.2 78.56 67.24 78.62 67.27 78.54 67.43 78.46 67.58 78.38 67.73 78.28 67.89 78.19 68.04 78.09 68.19 77.98 68.34 77.88 68.48 77.77 68.61 77.65 68.74 77.53 68.87 77.4 69 77.26 69.13 77.11 69.26 76.97 69.39 76.81 69.51 76.66 69.63 76.5 69.74 76.34 69.85 76.18 69.94 76.02 70.03 75.87 70.12 75.72 70.18 75.57 70.24 75.42 70.29 75.28 70.34 75.13 70.38 74.98 70.42 74.84 70.46 74.69 70.49 74.54 70.53 74.39 70.55 74.24 70.58 74.09 70.59 73.95 70.61 73.79 70.63 73.64 70.64 73.49 70.65 73.34 70.66 73.19 70.66"/><path class="cls-2" d="M59,62.78l1.45-1,.56-.41.44-.33.36-.29.32-.27.3-.27.32-.29.38-.35.46-.42.14-.13.14-.14L64,58.7l.13-.14.12-.14.12-.14.11-.14.1-.14.1-.15.1-.15.09-.15L65,57.4l.09-.16.08-.15.08-.16.07-.15.14-.31.13-.32.12-.32.11-.32.1-.31L66,54.9l.09-.31.09-.31.06-.24.06-.27,0-.29,0-.3,0-.3,0-.31,0-.3,0-.3,0-.54,0-.44,0-.3v-.11H59Zm-.22,6-.2-.29-.2-.29-.2-.32L58,67.57l-.23-.41-.27-.48-.31-.56-.64-1.41V50.89l0-.1,0-.1,0-.09,0-.09-.07-.17-.07-.16L56.16,50l-.08-.14L56,49.77l-.08-.1-.07-.09-.06-.07-.1-.1,0,0H69.31l-.08.08-.19.2-.11.12-.1.12-.09.11-.07.09-.06.1,0,.1,0,.09,0,.09-.07.17-.06.17,0,.14,0,.14v.34l0,.37,0,.35,0,.33-.06.33-.07.35-.07.38-.09.43-.1.48-.07.31-.08.3-.09.3-.09.3-.09.29-.11.29-.11.27-.12.27-.12.26-.13.25-.13.25-.14.24-.14.24-.14.22-.15.22-.15.21-.15.2-.15.19-.15.19-.16.17-.41.45-.33.35-.28.29-.28.28-.32.29-.41.36-.54.46-.7.6L59,64.8v4.31Z"/></g></svg>
